<svg xmlns="http://www.w3.org/2000/svg" viewBox="0 0 56.08 56.08"><defs><style>.cls-1{fill:#fff;}.cls-2{fill:none;stroke:#fff;stroke-linecap:round;stroke-linejoin:round;stroke-width:2px;}</style></defs><title>Asset 2</title><g id="Layer_2" data-name="Layer 2"><g id="Capa_1" data-name="Capa 1"><path class="cls-1" d="M37.52,36.19a2.91,2.91,0,0,0-4.4,0c-1,1-2,2-3.06,3.08a.76.76,0,0,1-.9.12c-.65-.35-1.34-.64-2-1a32.05,32.05,0,0,1-7.69-7A18.13,18.13,0,0,1,16.76,27a.62.62,0,0,1,.15-.81c1-1,2-2,3-3a2.92,2.92,0,0,0,0-4.5l-2.41-2.42L15,13.69a3.12,3.12,0,0,0-4.35,0c-1,1-2,2.09-3.11,3.1A5,5,0,0,0,6,20.16,14.43,14.43,0,0,0,7.1,26.32a37.33,37.33,0,0,0,6.64,11.06A41.06,41.06,0,0,0,27.35,48a19.76,19.76,0,0,0,7.55,2.2,5.52,5.52,0,0,0,4.8-1.88,35.57,35.57,0,0,1,2.6-2.61,3,3,0,0,0,.16-4.62Q40,38.64,37.52,36.19Z"/><path class="cls-1" d="M36,31l1.83-.31a.92.92,0,0,0,.75-1.09,16.34,16.34,0,0,0-4.35-7.83,16.09,16.09,0,0,0-8.31-4.45.91.91,0,0,0-1.07.78l-.26,1.84a.92.92,0,0,0,.75,1,12.6,12.6,0,0,1,9.61,9.32A.94.94,0,0,0,36,31Z"/><path class="cls-1" d="M40.22,16a26.69,26.69,0,0,0-14.41-7.5.93.93,0,0,0-1.07.78l-.25,1.84a.91.91,0,0,0,.75,1A23.38,23.38,0,0,1,44,30.31.91.91,0,0,0,45,31l1.82-.31a.93.93,0,0,0,.76-1.09A27,27,0,0,0,40.22,16Z"/><path class="cls-2" d="M51.92,40.92A26.45,26.45,0,0,0,55.08,28a27.07,27.07,0,1,0-9.51,20.57c-1.63-3.09-5.4-5.35-5.4-5.35"/></g></g></svg>