<svg xmlns="http://www.w3.org/2000/svg" viewBox="0 0 60 60"><defs><style>.cls-1{fill:#fff;}.cls-2{fill:none;stroke:#fff;stroke-linecap:round;stroke-linejoin:round;stroke-width:2px;}</style></defs><title>Asset 1</title><g id="Layer_2" data-name="Layer 2"><g id="Capa_1" data-name="Capa 1"><circle cx="30" cy="30" r="30"/><path class="cls-1" d="M39.48,38.15a2.9,2.9,0,0,0-4.39,0c-1,1-2.06,2-3.07,3.08a.74.74,0,0,1-.9.12c-.65-.35-1.34-.63-2-1a31.83,31.83,0,0,1-7.69-7,18.24,18.24,0,0,1-2.75-4.41.64.64,0,0,1,.15-.81c1-1,2-2,3-3a2.92,2.92,0,0,0,0-4.5L19.5,18.16c-.84-.84-1.66-1.68-2.51-2.5a3.11,3.11,0,0,0-4.34,0c-1.05,1-2.06,2.09-3.12,3.1A5,5,0,0,0,8,22.12a14.27,14.27,0,0,0,1.1,6.16A37.72,37.72,0,0,0,15.7,39.35,41.35,41.35,0,0,0,29.32,50a19.83,19.83,0,0,0,7.54,2.19,5.52,5.52,0,0,0,4.81-1.88,33.56,33.56,0,0,1,2.59-2.61,3,3,0,0,0,.16-4.61Q42,40.61,39.48,38.15Z"/><path class="cls-1" d="M37.94,32.93l1.83-.31a.92.92,0,0,0,.75-1.09,16.26,16.26,0,0,0-4.35-7.83,16.09,16.09,0,0,0-8.31-4.45.92.92,0,0,0-1.07.78l-.25,1.84a.91.91,0,0,0,.74,1,12.63,12.63,0,0,1,9.62,9.32A.92.92,0,0,0,37.94,32.93Z"/><path class="cls-1" d="M42.18,18a26.72,26.72,0,0,0-14.41-7.5.92.92,0,0,0-1.06.78l-.26,1.84a.91.91,0,0,0,.76,1A23.34,23.34,0,0,1,45.92,32.28.9.9,0,0,0,47,33l1.83-.31a.92.92,0,0,0,.75-1.09A27,27,0,0,0,42.18,18Z"/><path class="cls-2" d="M53.89,42.88A26.55,26.55,0,0,0,57,30a27.06,27.06,0,1,0-9.5,20.57c-1.64-3.09-5.41-5.35-5.41-5.35"/></g></g></svg>