<svg width="100" height="100" viewBox="0 0 100 100" fill="none" xmlns="http://www.w3.org/2000/svg">
<path fill-rule="evenodd" clip-rule="evenodd" d="M55.5548 77.7786L77.7767 55.5567L99.9986 77.7786L77.7767 100.001L55.5548 77.7786ZM44.4438 22.2239L22.2219 44.4458L0 22.2239L22.2219 0.00194395L44.4438 22.2239ZM68.2935 15.0406L84.9599 31.7071L31.7051 84.9619L15.0387 68.2954L68.2935 15.0406ZM98.3709 18.2956L92.8154 23.8511L76.1489 7.18462L81.7044 1.62914C83.8766 -0.543048 87.3877 -0.543048 89.5599 1.62914L98.3709 10.4401C100.543 12.6123 100.543 16.1234 98.3709 18.2956ZM0 100.001L8.86654 77.8342L22.1664 91.134L0 100.001Z" fill="#A09178"/>
</svg>
