<svg width="101" height="119" viewBox="0 0 101 119" fill="none" xmlns="http://www.w3.org/2000/svg">
<path d="M25.7753 33.7764C20.7105 9.57296 32.2792 8.76298 32.2792 8.76298C32.2792 8.76298 34.0244 5.41165 38.6225 2.88044C41.7019 1.05965 45.9905 -0.354451 51.6523 0.134917C53.4854 0.220978 55.2154 0.573661 56.8405 1.12209L56.8439 1.12378C58.9239 1.82577 60.8281 2.84838 62.5513 4.04311C64.6685 5.38128 66.664 7.01813 68.4261 8.88785C71.2147 11.7312 73.6989 15.4083 74.7761 19.9982C75.8009 23.8963 75.7688 28.1099 74.24 32.3927C76.3201 32.1969 78.7755 33.4018 76.4638 41.5574C74.7744 47.5158 73.2017 49.1881 72.0112 49.2826C70.6837 57.8466 65.969 68.9704 51.0824 70.1094C36.4274 69.5391 31.8818 58.6751 30.3801 50.2445C29.1659 51.068 27.1468 50.6377 24.9281 42.8112C23.1203 36.446 24.2178 34.313 25.7753 33.7764ZM100.345 95.8013C100.722 90.4773 100.276 79.7027 90.9259 77.3301C78.3899 74.1493 68.2029 66.9927 68.2029 66.9927L58.7633 96.7834L57.4696 100.823L53.2402 88.8674C63.8365 74.1138 50.433 74.6893 50.433 74.6893C50.433 74.6893 37.0295 74.1155 47.6258 88.8691L43.437 100.732L42.1315 96.731L42.1078 96.7952L40.6112 92.0736L32.6631 66.9927C32.6631 66.9927 22.476 74.1493 9.94003 77.3301C0.595111 79.7011 0.143593 90.4638 0.520704 95.7911C0.520704 95.7911 0.412474 103.194 1.60807 106.198C1.60807 106.198 19.8616 118.037 50.4347 118.037L50.4939 117.349L50.477 118.037C81.05 118.037 99.3036 106.198 99.3036 106.198C100.497 103.194 100.391 95.7911 100.391 95.7911L100.345 95.8013Z" fill="#A09178"/>
</svg>
