<svg width="100" height="134" viewBox="0 0 100 134" fill="none" xmlns="http://www.w3.org/2000/svg">
<path d="M11.7368 60.9093V121.818H55.8682H99.9997V60.9093V0.000239715H55.8682H11.7368V60.9093ZM61.3847 26.4104C65.3283 27.9697 68.2861 31.0882 69.7649 35.23C70.211 36.4239 70.2814 37.1791 70.3049 39.8348C70.3049 42.5391 70.2344 43.2213 69.7649 44.5369C67.7462 50.3842 62.4175 54.3311 56.5725 54.3311C50.7274 54.3311 45.4692 50.4329 43.4035 44.5857C42.934 43.2457 42.8636 42.5635 42.8636 39.9566C42.8636 36.6919 43.1922 35.2544 44.5537 32.6962C45.4457 31.0151 48.4504 28.0428 50.1171 27.1657C52.6523 25.8744 54.0373 25.582 57.0419 25.6795C59.272 25.7282 60.0232 25.8744 61.3847 26.4104ZM62.3236 64.442C66.6664 65.1729 70.4457 66.586 74.1311 68.8518C75.8448 69.8995 76.995 70.8497 78.7556 72.7013C83.3095 77.5009 84.5771 81.0824 84.4598 88.8544L84.3893 92.7038L56.6194 92.7769L28.826 92.8256L28.9199 87.4169C29.0138 82.1544 29.0373 81.9351 29.6711 80.1566C30.7274 77.2573 31.9011 75.3326 34.0138 73.018C37.934 68.73 43.9903 65.6115 50.657 64.442C53.2391 64.0035 59.6241 64.0035 62.3236 64.442Z" fill="#A09178"/>
<path d="M0 73.0909V134H44.1314H88.2629V130.955V127.909H47.1831H6.10328V70.0455V12.1819H3.05164H0V73.0909Z" fill="#A09178"/>
</svg>
