<svg width="100" height="93" viewBox="0 0 100 93" fill="none" xmlns="http://www.w3.org/2000/svg">
<path d="M63.4694 32.8295C63.4694 32.7279 63.4694 32.7279 63.4694 32.8295C63.4694 32.6262 63.4694 32.5246 63.4694 32.423L64.5918 15.5508C64.5918 15.4492 64.5918 15.4492 64.5918 15.3475C64.7959 13.9246 65.9184 12.9082 67.3469 12.9082C68.7755 12.9082 70 14.0262 70.102 15.4492L71.1224 30.7967C71.1224 31.2033 71.3265 31.7115 71.6326 32.0164L78.4694 40.1475L78.5714 40.2492C79.3878 41.3672 79.2857 42.8918 78.3673 43.9082C77.3469 44.9246 75.7143 45.0262 74.5918 44.0098L65.102 36.082C64.898 35.9803 64.7959 35.7771 64.5918 35.6754C63.8776 34.9639 63.4694 33.9475 63.4694 32.8295ZM45.2041 23.682C48.6735 14.7377 57.449 8.33443 67.6531 8.33443C80.9184 8.33443 91.7347 19.1082 91.7347 32.3213C91.7347 44.3148 82.8571 54.1738 71.4286 56.0033C71.6327 57.5279 71.7347 59.1541 71.7347 60.7803C71.7347 62 71.6327 63.2197 71.5306 64.4393C87.551 62.4066 100 48.7869 100 32.2197C100 14.4328 85.5102 0 67.6531 0C53.4694 0 41.3265 9.14754 36.9388 21.8525C39.7959 22.1574 42.551 22.7672 45.2041 23.682ZM30.3061 28.3574H34.4898C36.0204 28.3574 37.2449 29.5771 37.2449 31.1016V35.2689C40.7143 35.9803 43.9796 37.3016 46.9388 39.3344L49.898 36.3869C51.0204 35.3705 52.6531 35.3705 53.7755 36.3869L56.7347 39.3344C57.7551 40.4525 57.7551 42.0787 56.7347 43.1967L53.7755 46.1443C55.8163 49.0918 57.1429 52.4459 57.7551 55.8H61.9388C63.4694 55.8 64.6939 57.0197 64.6939 58.5443V62.7115C64.6939 64.2361 63.4694 65.4557 61.9388 65.4557H57.7551C57.1429 68.9115 55.7143 72.1639 53.6735 75.2131L56.5306 78.1606C57.551 79.2787 57.551 80.9049 56.5306 82.0229L53.5714 84.9705C52.449 85.9869 50.8163 85.9869 49.6939 84.9705L46.9388 82.1246C43.8776 84.1574 40.6122 85.4787 37.1429 86.1902V90.2557C37.1429 91.7803 35.9184 93 34.3878 93H30.2041C28.6735 93 27.449 91.7803 27.449 90.2557V86.2918C23.9796 85.682 20.6122 84.259 17.6531 82.2262L14.7959 85.0721C13.6735 86.0885 12.0408 86.0885 10.9184 85.0721L7.95918 82.1246C6.93878 81.0066 6.93878 79.3803 7.95918 78.2623L10.8163 75.4164C8.77551 72.3672 7.44898 69.0131 6.73469 65.5574H2.7551C1.22449 65.3541 0 64.1344 0 62.7115V58.5443C0 57.0197 1.22449 55.8 2.7551 55.8H6.83673C7.55102 52.3443 8.87755 48.9902 10.9184 46.0426L8.06122 43.1967C7.04082 42.0787 7.04082 40.4525 8.06122 39.3344L11.0204 36.3869C12.1429 35.3705 13.7755 35.3705 14.898 36.3869L17.7551 39.3344C20.7143 37.3016 24.0816 35.9803 27.551 35.3705V31.2033C27.6531 29.577 28.8776 28.3574 30.3061 28.3574ZM22.449 50.718C16.9388 56.2066 16.9388 65.0492 22.3469 70.6393C27.7551 76.2295 36.7347 76.1279 42.3469 70.741C47.8571 65.2525 47.8571 56.4098 42.449 50.8197C37.0408 45.2295 27.9592 45.2295 22.449 50.718Z" fill="#A09178"/>
</svg>
