<svg width="85" height="40" viewBox="0 0 85 40" fill="none" xmlns="http://www.w3.org/2000/svg">
<g clip-path="url(#clip0_1349_2299)">
<path d="M7.9707 24.5011L20.2514 0.496094L32.5326 24.5011H7.9707Z" fill="white"/>
<path d="M2.38272 38.2924L1.6246 39.8548H0.264648V39.6925L3.87651 32.2617H4.4788L8.0682 39.6925V39.8548H6.71948L5.95012 38.2924H2.38272ZM2.80671 37.2373H5.5383L4.17836 34.2215L2.80671 37.2373Z" fill="white"/>
<path d="M20.6219 32.4439L22.4953 37.5594H22.5173L23.2978 34.8563L24.1224 32.3145H25.4941V32.4972L22.8963 39.907H22.2276L20.3435 35.0718H20.3215L18.4374 39.907H17.7242L15.1377 32.4972V32.3145H16.4864L17.3339 34.8563L18.1477 37.5699H18.1697L20.0426 32.4439H20.6219Z" fill="white"/>
<path d="M34.4355 38.2924L33.6773 39.8548H32.3174V39.6925L35.9292 32.2617H36.5315L40.1214 39.6925V39.8548H38.7722L38.0029 38.2924H34.4355ZM34.859 37.2373H37.5901L36.2302 34.2215L34.859 37.2373Z" fill="white"/>
<path d="M54.6364 39.67V39.8537H53.3209L51.3806 37.2258H49.6632V39.8537H48.3594V32.3145H51.5814C53.2755 32.3145 54.2905 33.4238 54.2905 34.7696C54.2905 35.8143 53.6438 36.6866 52.6517 37.0316L54.6364 39.67ZM51.5702 36.1912C52.4182 36.1912 53.0303 35.5991 53.0303 34.7811C53.0303 33.9944 52.4289 33.4028 51.5702 33.4028H49.6416V36.1912H51.5702Z" fill="white"/>
<path d="M66.5988 32.3262C69.029 32.3262 70.4115 34.0922 70.4115 36.0744C70.4115 38.0556 69.0515 39.8545 66.5988 39.8545H63.7783V32.3262H66.5988ZM66.5764 38.7128C68.1932 38.7128 69.1189 37.5064 69.1189 36.0849C69.1189 34.6638 68.182 33.4574 66.5885 33.4574H65.0718V38.7133L66.5764 38.7128Z" fill="white"/>
<path d="M79.6206 37.711C79.6763 38.5614 80.6352 38.8736 81.4827 38.8736C82.3078 38.8736 83.2882 38.6371 83.2882 37.6995C83.2882 36.7087 82.2287 36.6126 81.3264 36.5255C79.8991 36.4075 78.4839 35.9658 78.4839 34.4572C78.4839 32.9067 79.8991 32.1738 81.4153 32.1738C82.8984 32.1738 84.3032 32.8201 84.3365 34.3611H83.1099C83.0542 33.553 82.1735 33.2946 81.4041 33.2946C80.6909 33.2946 79.7652 33.5749 79.7652 34.4253C79.7652 35.2767 80.646 35.3843 81.5496 35.5028C83.1324 35.675 84.5817 35.9763 84.5817 37.711C84.5817 39.369 82.9648 39.9944 81.5047 39.9944C79.9772 40.0262 78.3828 39.2938 78.3496 37.711H79.6206Z" fill="white"/>
<path fill-rule="evenodd" clip-rule="evenodd" d="M56.375 0.666016V12.5831V24.4993H67.3613C73.4183 24.4993 78.3461 19.1615 78.3461 12.5998C78.3461 6.03706 73.4188 0.666016 67.3613 0.666016H56.375Z" fill="white"/>
<path d="M44.3545 0.666016H33.3691V12.5831V24.4379V24.4997H44.3549C50.412 24.4997 55.3403 19.162 55.3403 12.6003C55.3398 6.03706 50.412 0.666016 44.3545 0.666016Z" fill="white"/>
</g>
<defs>
<clipPath id="clip0_1349_2299">
<rect width="85" height="40" fill="white"/>
</clipPath>
</defs>
</svg>
