<svg width="97" height="45" viewBox="0 0 97 45" fill="none" xmlns="http://www.w3.org/2000/svg">
<g clip-path="url(#clip0_1926_9341)">
<path d="M9.01941 27.5623L22.9165 0.556641L36.8141 27.5623H9.01941Z" fill="#A09178"/>
<path d="M2.69641 43.0774L1.8385 44.8351H0.299561V44.6526L4.38681 36.293H5.06837L9.13019 44.6526V44.8351H7.60396L6.73334 43.0774H2.69641ZM3.1762 41.8905H6.26732L4.72838 38.4977L3.1762 41.8905Z" fill="#A09178"/>
<path d="M23.336 36.5011L25.4558 42.256H25.4807L26.3641 39.215L27.2972 36.3555H28.8493V36.5611L25.9097 44.8971H25.1529L23.0209 39.4575H22.996L20.8639 44.8971H20.0568L17.1299 36.5611V36.3555H18.6561L19.6152 39.215L20.5361 42.2678H20.561L22.6803 36.5011H23.336Z" fill="#A09178"/>
<path d="M38.9676 43.0774L38.1097 44.8351H36.5708V44.6526L40.658 36.293H41.3396L45.402 44.6526V44.8351H43.8752L43.0046 43.0774H38.9676ZM39.4469 41.8905H42.5375L40.9986 38.4977L39.4469 41.8905Z" fill="#A09178"/>
<path d="M61.8274 44.6305V44.8371H60.3388L58.1432 41.8807H56.1996V44.8371H54.7242V36.3555H58.3704C60.2874 36.3555 61.4361 37.6035 61.4361 39.1176C61.4361 40.2927 60.7042 41.2741 59.5815 41.6623L61.8274 44.6305ZM58.3576 40.7168C59.3172 40.7168 60.0099 40.0507 60.0099 39.1304C60.0099 38.2454 59.3294 37.5799 58.3576 37.5799H56.1753V40.7168H58.3576Z" fill="#A09178"/>
<path d="M75.3643 36.3672C78.1144 36.3672 79.6788 38.354 79.6788 40.5839C79.6788 42.8128 78.1398 44.8365 75.3643 44.8365H72.1726V36.3672H75.3643ZM75.3389 43.5521C77.1686 43.5521 78.2161 42.1949 78.2161 40.5957C78.2161 38.997 77.1559 37.6398 75.3527 37.6398H73.6363V43.5527L75.3389 43.5521Z" fill="#A09178"/>
<path d="M90.0997 42.4246C90.1627 43.3813 91.2478 43.7326 92.2069 43.7326C93.1405 43.7326 94.25 43.4665 94.25 42.4117C94.25 41.2971 93.051 41.1889 92.03 41.0909C90.4148 40.9582 88.8134 40.4613 88.8134 38.7641C88.8134 37.0198 90.4148 36.1953 92.1306 36.1953C93.8088 36.1953 95.3986 36.9224 95.4362 38.656H94.0482C93.9852 37.7469 92.9885 37.4562 92.1179 37.4562C91.3108 37.4562 90.2633 37.7715 90.2633 38.7282C90.2633 39.6861 91.26 39.8071 92.2826 39.9404C94.0736 40.1342 95.7137 40.4731 95.7137 42.4246C95.7137 44.2899 93.884 44.9934 92.2318 44.9934C90.5032 45.0293 88.699 44.2053 88.6614 42.4246H90.0997Z" fill="#A09178"/>
<path fill-rule="evenodd" clip-rule="evenodd" d="M63.7948 0.75V14.1567V27.5624H76.2271C83.0813 27.5624 88.6577 21.5575 88.6577 14.1755C88.6577 6.79243 83.0819 0.75 76.2271 0.75H63.7948Z" fill="#A09178"/>
<path d="M50.1921 0.75H37.7609V14.1567V27.4933V27.5629H50.1926C57.0469 27.5629 62.6238 21.558 62.6238 14.176C62.6233 6.79243 57.0469 0.75 50.1921 0.75Z" fill="#A09178"/>
</g>
<defs>
<clipPath id="clip0_1926_9341">
<rect width="96.1875" height="45" fill="white"/>
</clipPath>
</defs>
</svg>
