<svg width="48" height="48" viewBox="0 0 48 48" fill="none" xmlns="http://www.w3.org/2000/svg">
<rect width="48" height="48" rx="24" fill="#252525"/>
<path d="M21.8608 24.5829C21.4438 24.0599 20.9662 23.6596 20.4314 23.3889C20.904 23.1013 21.3109 22.7482 21.6473 22.3278C22.214 21.6181 22.5016 20.7285 22.5016 19.6825C22.5016 18.8097 22.2712 18.0075 21.8154 17.2996C21.3614 16.5916 20.6854 16.0232 19.8058 15.6095C18.9448 15.2042 17.9072 14.999 16.725 14.999H10V32.3657H17.0344C18.1864 32.3657 19.2156 32.1555 20.0917 31.7418C20.9847 31.3214 21.6809 30.7328 22.1585 29.9945C22.6378 29.2529 22.8816 28.4104 22.8816 27.4905C22.8816 26.4125 22.5386 25.4355 21.8608 24.5846V24.5829ZM18.289 21.418C17.8736 21.7543 17.2665 21.9258 16.4879 21.9258H13.5786V18.0782H16.4879C17.2631 18.0782 17.8669 18.2548 18.2822 18.6045C18.6808 18.9392 18.8742 19.4017 18.8742 20.0138C18.8742 20.6259 18.6825 21.1001 18.289 21.418ZM13.5786 25.0067H16.7015C17.5188 25.0067 18.1477 25.2051 18.6236 25.6137C19.0794 26.0056 19.3013 26.5252 19.3013 27.2046C19.3013 27.884 19.0962 28.3633 18.6724 28.7215C18.2335 29.0931 17.6028 29.2815 16.7956 29.2815H13.5786V25.0067Z" fill="white"/>
<path d="M36.6205 21.679C36.079 20.7003 35.3121 19.9284 34.3401 19.3869C33.3698 18.8454 32.2481 18.5713 31.0104 18.5713C29.7727 18.5713 28.5669 18.8538 27.5731 19.4105C26.5775 19.9688 25.7938 20.7709 25.2456 21.7984C24.6974 22.8243 24.4199 24.0283 24.4199 25.377C24.4199 26.7257 24.7058 27.9315 25.2708 28.9556C25.8359 29.9814 26.6263 30.7886 27.6218 31.3537C28.6157 31.9187 29.7559 32.2046 31.0121 32.2046C32.5542 32.2046 33.8642 31.8128 34.9068 31.0409C35.9495 30.269 36.6793 29.2634 37.0779 28.0542L37.1065 27.9685H34.0559L34.0374 28.0055C33.4505 29.1944 32.4331 29.7965 31.0104 29.7965C30.0199 29.7965 29.1723 29.482 28.4913 28.8648C27.827 28.2611 27.4453 27.4539 27.3561 26.4634H37.3318L37.3402 26.4079C37.4041 26.0093 37.4361 25.5586 37.4361 25.0693C37.4361 23.7979 37.162 22.6578 36.6205 21.679ZM28.5383 21.8539C29.1875 21.2737 29.9795 20.9811 30.891 20.9811C31.8983 20.9811 32.7543 21.2788 33.4354 21.8674C34.0979 22.4392 34.4494 23.2077 34.4797 24.1494H27.3847C27.5192 23.1925 27.9077 22.4206 28.54 21.8556L28.5383 21.8539Z" fill="white"/>
<path d="M34.2498 15.3975H27.6055V16.9715H34.2498V15.3975Z" fill="white"/>
</svg>
