<svg width="73" height="42" viewBox="0 0 73 42" fill="none" xmlns="http://www.w3.org/2000/svg">
<rect width="72.9589" height="41.2243" fill="#A09178"/>
<path d="M14.592 17.6113H13.1188V8.12108H14.592V17.6113ZM17.7752 17.6113H16.3414V8.12108H17.6765L22.5959 15.1187H22.6485V8.12108H24.0823V17.6113H22.7538L17.8343 10.6202H17.7752V17.6113ZM29.6659 17.6113H28.1927V9.39039H25.2858V8.12108H32.5663V9.39039H29.6659V17.6113ZM39.7941 16.3354V17.6113H33.7698V8.12108H39.7941V9.39039H35.243V12.1658H39.5508V13.3891H35.243V16.3354H39.7941ZM42.78 9.35751V12.7708H44.8451C45.9828 12.7708 46.6339 12.146 46.6339 11.0609C46.6339 10.002 45.9434 9.35751 44.8056 9.35751H42.78ZM42.78 13.9612V17.6113H41.3068V8.12108H44.9832C46.9365 8.12108 48.1532 9.25228 48.1532 11.0214C48.1532 12.3039 47.4692 13.343 46.3117 13.731L48.436 17.6113H46.7392L44.8056 13.9612H42.78ZM51.0535 17.6113H49.5803V8.12108H51.0535V17.6113ZM58.9851 17.6113L58.1169 15.0464H54.4997L53.6316 17.6113H52.0992L55.5257 8.12108H57.1173L60.5438 17.6113H58.9851ZM56.2886 9.6995L54.8746 13.8626H57.7421L56.3281 9.6995H56.2886ZM16.4401 32.6113L15.5719 30.0464H11.9547L11.0866 32.6113H9.55421L12.9807 23.1211H14.5723L17.9988 32.6113H16.4401ZM13.7436 24.6995L12.3296 28.8626H15.1971L13.7831 24.6995H13.7436ZM23.589 25.4558L21.5436 32.6113H20.1494L17.591 23.1211H19.1234L20.8794 30.5528H20.932L22.9379 23.1211H24.3059L26.3184 30.5528H26.371L28.127 23.1211H29.6593L27.0944 32.6113H25.7067L23.6548 25.4558H23.589ZM36.144 32.6113L35.2759 30.0464H31.6587L30.7905 32.6113H29.2582L32.6846 23.1211H34.2762L37.7027 32.6113H36.144ZM33.4475 24.6995L32.0335 28.8626H34.901L33.487 24.6995H33.4475ZM40.2216 24.3575V27.7708H42.2867C43.4245 27.7708 44.0756 27.146 44.0756 26.0609C44.0756 25.002 43.385 24.3575 42.2472 24.3575H40.2216ZM40.2216 28.9612V32.6113H38.7484V23.1211H42.4248C44.3781 23.1211 45.5948 24.2523 45.5948 26.0214C45.5948 27.3039 44.9108 28.343 43.7533 28.731L45.8776 32.6113H44.1808L42.2472 28.9612H40.2216ZM47.022 23.1211H50.3695C53.191 23.1211 54.8615 24.8573 54.8615 27.8498C54.8615 30.8488 53.1975 32.6113 50.3695 32.6113H47.022V23.1211ZM48.4952 24.3904V31.3354H50.2314C52.2439 31.3354 53.3554 30.1056 53.3554 27.8629C53.3554 25.6268 52.2373 24.3904 50.2314 24.3904H48.4952ZM55.848 29.9675H57.3014C57.4067 30.9079 58.3208 31.5262 59.5704 31.5262C60.7674 31.5262 61.6289 30.9079 61.6289 30.0595C61.6289 29.323 61.1094 28.8823 59.8795 28.5798L58.6497 28.2838C56.9068 27.8629 56.0979 27.0474 56.0979 25.7255C56.0979 24.0879 57.525 22.9632 59.5507 22.9632C61.5566 22.9632 62.9311 24.0879 62.9772 25.7255H61.5434C61.4579 24.7784 60.6753 24.2062 59.5309 24.2062C58.3866 24.2062 57.604 24.785 57.604 25.6268C57.604 26.2976 58.1038 26.6923 59.3271 26.9948L60.3728 27.2513C62.3195 27.7116 63.1284 28.4943 63.1284 29.882C63.1284 31.6577 61.7144 32.7692 59.4652 32.7692C57.3606 32.7692 55.94 31.684 55.848 29.9675Z" fill="#2F2F2F"/>
</svg>
