<svg width="157" height="28" viewBox="0 0 157 28" fill="none" xmlns="http://www.w3.org/2000/svg">
<path d="M21.8021 16.256L22.3363 16.2178V16.9809C21.8275 17.1463 21.2934 17.2289 20.7338 17.2289C20.543 17.2289 20.3586 17.2162 20.1806 17.1908C20.0025 17.1781 19.8244 17.1335 19.6464 17.0572C19.4811 16.9936 19.3094 16.8983 19.1313 16.7711C18.9533 16.6312 18.7816 16.4531 18.6162 16.2369L14.5146 9.9033L12.3017 12.1735V17H10.6611V12.1735L8.4481 9.9033L4.34651 16.2369C4.16846 16.4531 3.99041 16.6312 3.81235 16.7711C3.64702 16.8983 3.47532 16.9936 3.29727 17.0572C3.13193 17.1335 2.96024 17.1781 2.78219 17.1908C2.60413 17.2162 2.41972 17.2289 2.22895 17.2289C1.66935 17.2289 1.13519 17.1463 0.626468 16.9809V16.2178L1.16063 16.256C1.40227 16.256 1.61848 16.2369 1.80925 16.1988C2.01274 16.1479 2.20351 16.0652 2.38157 15.9508C2.55962 15.8363 2.73131 15.6837 2.89665 15.4929C3.0747 15.3021 3.25912 15.0605 3.44989 14.768L7.3607 8.77775L2.41972 3.64599H3.65974L10.6611 10.8953V3.64599H12.3017V10.8953L19.303 3.64599H20.543L15.602 8.77775L19.5129 14.768C19.8817 15.353 20.2314 15.7473 20.5621 15.9508C20.8928 16.1542 21.3061 16.256 21.8021 16.256ZM26.9385 15.4357L34.8555 3.64599H36.5915V17H34.8555V5.07678L26.9385 17H25.2025V3.64599H26.9385V15.4357ZM47.5783 3.64599L53.3778 17H51.4891L46.6626 5.78263H46.5863L42.8663 15.2258C42.6119 15.8744 42.3194 16.3705 41.9887 16.7138C41.6708 17.0572 41.3083 17.2289 40.9013 17.2289C40.647 17.2289 40.3926 17.2098 40.1382 17.1717C39.8966 17.1335 39.6677 17.0763 39.4515 17L39.9665 15.7028C40.0937 15.7663 40.2336 15.8427 40.3862 15.9317C40.5389 16.0207 40.6978 16.0652 40.8632 16.0652C41.2829 16.0652 41.5881 15.8935 41.7789 15.5501C41.9824 15.2067 42.1922 14.7489 42.4084 14.1766L46.5291 3.64599H47.5783ZM63.6611 13.0701H57.0795L55.4007 17H54.5232L60.17 3.64599H61.1239L67.343 17H65.4925L63.6611 13.0701ZM63.2605 12.2116L60.2654 5.78263H60.1891L57.442 12.2116H63.2605ZM79.3315 3.64599V17H77.5955V11.1052H76.7561C76.4 11.1052 76.1011 11.137 75.8595 11.2005C75.6305 11.2641 75.4207 11.3722 75.2299 11.5249C75.0391 11.6775 74.8611 11.8746 74.6958 12.1162C74.5304 12.3579 74.3333 12.6568 74.1044 13.0129L72.5973 15.2449C72.4065 15.5374 72.2157 15.8045 72.025 16.0461C71.8469 16.2878 71.6498 16.4976 71.4336 16.6757C71.2174 16.841 70.9693 16.9746 70.6896 17.0763C70.4225 17.1781 70.0982 17.2289 69.7166 17.2289C69.4368 17.2289 69.2079 17.2162 69.0298 17.1908C68.8518 17.1653 68.6737 17.1017 68.4957 17V16.2941C68.5593 16.3069 68.6229 16.3196 68.6864 16.3323C68.75 16.3323 68.8136 16.3323 68.8772 16.3323C69.1443 16.3323 69.3796 16.2941 69.5831 16.2178C69.7866 16.1415 69.9773 16.0334 70.1554 15.8935C70.3334 15.7409 70.5051 15.5629 70.6705 15.3594C70.8358 15.1432 71.0075 14.9015 71.1856 14.6344C71.7197 13.8586 72.1331 13.2418 72.4256 12.7839C72.7181 12.3134 72.947 11.9509 73.1123 11.6966C73.2904 11.4422 73.4303 11.2578 73.532 11.1433C73.6465 11.0289 73.78 10.9335 73.9327 10.8572L74.1234 10.7618V10.6855C73.513 10.6473 72.9852 10.5138 72.54 10.2848C72.1076 10.0559 71.7515 9.76976 71.4717 9.42637C71.1919 9.08298 70.9884 8.71416 70.8612 8.31989C70.7341 7.91292 70.6705 7.51865 70.6705 7.13711C70.6705 6.79372 70.7341 6.41854 70.8612 6.01156C71.0011 5.60458 71.2301 5.2294 71.548 4.88601C71.8787 4.5299 72.3238 4.23738 72.8834 4.00846C73.443 3.76681 74.1489 3.64599 75.001 3.64599H79.3315ZM77.5955 4.48539H75.6687C75.1854 4.48539 74.7466 4.55534 74.3524 4.69523C73.9708 4.83513 73.6402 5.03227 73.3604 5.28663C73.0806 5.52827 72.8643 5.82079 72.7117 6.16418C72.5718 6.50756 72.5019 6.88275 72.5019 7.28973C72.5019 7.63312 72.5655 7.98286 72.6927 8.33897C72.8326 8.68236 73.036 9.00031 73.3031 9.29283C73.5702 9.57263 73.8945 9.80155 74.2761 9.97961C74.6703 10.1577 75.1218 10.2467 75.6305 10.2467H77.5955V4.48539ZM102.041 14.539L102.613 15.0541C102.448 15.2449 102.206 15.4675 101.888 15.7218C101.57 15.9762 101.169 16.2178 100.686 16.4468C100.216 16.663 99.656 16.8474 99.0073 17C98.3714 17.1526 97.6465 17.2289 96.8326 17.2289C95.548 17.2289 94.4415 17.0318 93.5131 16.6375C92.5847 16.2306 91.8216 15.7028 91.2239 15.0541C90.6261 14.3928 90.181 13.6424 89.8885 12.803C89.6087 11.9509 89.4688 11.0797 89.4688 10.1895C89.4688 9.15929 89.6468 8.23087 90.0029 7.40419C90.359 6.5648 90.8614 5.85258 91.51 5.26755C92.1587 4.6698 92.9345 4.21195 93.8374 3.89399C94.7531 3.57604 95.7642 3.41707 96.8707 3.41707C97.6338 3.41707 98.3142 3.49337 98.912 3.64599C99.5097 3.79861 100.031 4.00846 100.476 4.27554C100.921 4.54262 101.29 4.86057 101.583 5.2294C101.888 5.59822 102.136 5.99884 102.327 6.43126H100.915C100.826 6.16418 100.667 5.90345 100.438 5.64909C100.222 5.38201 99.9358 5.14673 99.5797 4.94324C99.2363 4.73975 98.8357 4.57441 98.3778 4.44723C97.9327 4.32005 97.4367 4.25646 96.8898 4.25646C96.0885 4.25646 95.3445 4.40272 94.6578 4.69523C93.9837 4.98775 93.3987 5.39473 92.9027 5.91617C92.4067 6.43762 92.0188 7.0608 91.739 7.78573C91.4719 8.49795 91.3383 9.28647 91.3383 10.1513C91.3383 10.9653 91.4655 11.7474 91.7199 12.4978C91.987 13.2482 92.3749 13.9095 92.8836 14.4818C93.3923 15.0541 94.0282 15.512 94.7913 15.8554C95.5544 16.1988 96.4319 16.3705 97.4239 16.3705C99.2045 16.3705 100.743 15.76 102.041 14.539ZM107.215 11.4295V17H105.479V3.64599H109.943C110.681 3.64599 111.323 3.7541 111.87 3.9703C112.417 4.18651 112.868 4.47903 113.225 4.84785C113.593 5.20396 113.867 5.63002 114.045 6.12602C114.223 6.60931 114.312 7.11803 114.312 7.65219C114.312 8.21179 114.21 8.73959 114.007 9.2356C113.803 9.71889 113.498 10.1513 113.091 10.5328C112.697 10.9017 112.201 11.1942 111.603 11.4104C111.005 11.6266 110.319 11.7347 109.543 11.7347C109.085 11.7347 108.665 11.7093 108.284 11.6584C107.902 11.5948 107.546 11.5185 107.215 11.4295ZM107.215 4.48539V10.6473C107.482 10.7491 107.781 10.819 108.112 10.8572C108.443 10.8826 108.805 10.8953 109.199 10.8953C109.772 10.8953 110.261 10.7999 110.668 10.6092C111.075 10.4184 111.412 10.1704 111.679 9.86514C111.946 9.55991 112.137 9.22288 112.252 8.85405C112.379 8.47251 112.442 8.09733 112.442 7.7285C112.442 7.34696 112.372 6.96542 112.233 6.58387C112.105 6.18961 111.908 5.83986 111.641 5.53463C111.374 5.21668 111.037 4.96231 110.63 4.77154C110.223 4.58077 109.753 4.48539 109.218 4.48539H107.215ZM117.738 3.64599H126.361V4.69523H119.474V9.4836H125.388V10.3993H119.474V15.9508H126.361V17H117.738V3.64599ZM135.242 3.64599L140.527 16.1034H142.396V19.0031H140.775V17H129.138V19.0031H127.497V16.1034H129.29L134.079 3.64599H135.242ZM138.695 16.1034L134.269 5.7254H134.193L130.187 16.1034H138.695ZM152.675 13.0701H146.094L144.415 17H143.537L149.184 3.64599H150.138L156.357 17H154.507L152.675 13.0701ZM152.275 12.2116L149.28 5.78263H149.203L146.456 12.2116H152.275Z" fill="#A09178"/>
<path d="M1.30173 21.0409V23.4795L1.26053 24.6206L3.31611 21.0409H4.12763V25.498H3.41909V22.7792C3.41909 22.6804 3.42321 22.5307 3.43145 22.3302C3.44244 22.1298 3.45205 21.987 3.46029 21.9018L1.37588 25.498H0.584953V21.0409H1.30173ZM6.03903 21.0409V22.9275H8.04517V21.0409H8.78666V25.498H8.04517V23.4672H6.03903V25.498H5.29754V21.0409H6.03903ZM9.51991 21.0409H13.0955V21.5805H11.6785V25.498H10.937V21.5805H9.51991V21.0409ZM14.2778 23.426C14.2778 23.9368 14.3835 24.3309 14.595 24.6083C14.8065 24.8856 15.1154 25.0243 15.5219 25.0243C15.8432 25.0243 16.1 24.9598 16.2922 24.8307C16.4872 24.7016 16.619 24.5382 16.6876 24.3405L17.3385 24.5259C17.0721 25.2289 16.4666 25.5804 15.5219 25.5804C14.8628 25.5804 14.3602 25.3841 14.0142 24.9914C13.6709 24.5986 13.4992 24.0151 13.4992 23.2406C13.4992 22.5046 13.6709 21.9403 14.0142 21.5476C14.3602 21.1548 14.8531 20.9585 15.493 20.9585C16.803 20.9585 17.458 21.748 17.458 23.3271V23.426H14.2778ZM16.6918 22.8575C16.6506 22.3879 16.5311 22.046 16.3334 21.8318C16.1357 21.6148 15.8514 21.5064 15.4807 21.5064C15.1209 21.5064 14.8353 21.6272 14.6238 21.8689C14.4151 22.1078 14.3025 22.4373 14.286 22.8575H16.6918ZM22.1747 23.2489C22.1747 24.8032 21.6282 25.5804 20.5352 25.5804C19.8486 25.5804 19.3872 25.3223 19.151 24.806H19.1304C19.1414 24.828 19.1469 25.0614 19.1469 25.5063V27.2488H18.4054V21.9513C18.4054 21.4926 18.3972 21.1892 18.3807 21.0409H19.0975C19.1002 21.0519 19.1044 21.0917 19.1099 21.1603C19.1153 21.2262 19.1208 21.3292 19.1263 21.4693C19.1346 21.6093 19.1387 21.7055 19.1387 21.7576H19.1552C19.287 21.483 19.4614 21.2825 19.6783 21.1562C19.8953 21.0271 20.1809 20.9626 20.5352 20.9626C21.0844 20.9626 21.495 21.1466 21.7669 21.5146C22.0387 21.8826 22.1747 22.4607 22.1747 23.2489ZM21.3961 23.2653C21.3961 22.6447 21.3124 22.2012 21.1448 21.9348C20.9773 21.6684 20.7109 21.5352 20.3457 21.5352C20.0518 21.5352 19.8211 21.597 19.6536 21.7206C19.4888 21.8441 19.3625 22.0378 19.2746 22.3014C19.1895 22.5623 19.1469 22.9028 19.1469 23.323C19.1469 23.908 19.2403 24.3391 19.427 24.6165C19.6138 24.8939 19.9173 25.0326 20.3374 25.0326C20.7054 25.0326 20.9732 24.898 21.1407 24.6289C21.311 24.357 21.3961 23.9025 21.3961 23.2653ZM24.8729 22.9275C25.4359 22.9275 25.8615 23.0292 26.1499 23.2324C26.4382 23.4329 26.5824 23.7514 26.5824 24.1881C26.5824 24.611 26.4341 24.9351 26.1375 25.1603C25.8409 25.3855 25.4208 25.498 24.877 25.498H23.118V21.0409H23.8595V22.9275H24.8729ZM23.8595 24.9749H24.7658C25.1228 24.9749 25.3837 24.9117 25.5485 24.7854C25.7132 24.6591 25.7956 24.46 25.7956 24.1881C25.7956 23.9299 25.716 23.7418 25.5567 23.6237C25.3974 23.5029 25.1351 23.4425 24.7699 23.4425H23.8595V24.9749ZM28.0695 23.426C28.0695 23.9368 28.1753 24.3309 28.3867 24.6083C28.5982 24.8856 28.9071 25.0243 29.3136 25.0243C29.6349 25.0243 29.8917 24.9598 30.0839 24.8307C30.2789 24.7016 30.4107 24.5382 30.4794 24.3405L31.1302 24.5259C30.8638 25.2289 30.2583 25.5804 29.3136 25.5804C28.6545 25.5804 28.1519 25.3841 27.8059 24.9914C27.4626 24.5986 27.291 24.0151 27.291 23.2406C27.291 22.5046 27.4626 21.9403 27.8059 21.5476C28.1519 21.1548 28.6449 20.9585 29.2847 20.9585C30.5947 20.9585 31.2497 21.748 31.2497 23.3271V23.426H28.0695ZM30.4835 22.8575C30.4423 22.3879 30.3228 22.046 30.1251 21.8318C29.9274 21.6148 29.6431 21.5064 29.2724 21.5064C28.9126 21.5064 28.627 21.6272 28.4156 21.8689C28.2068 22.1078 28.0942 22.4373 28.0778 22.8575H30.4835ZM35.9664 23.2489C35.9664 24.8032 35.4199 25.5804 34.3269 25.5804C33.6403 25.5804 33.1789 25.3223 32.9428 24.806H32.9222C32.9332 24.828 32.9386 25.0614 32.9386 25.5063V27.2488H32.1972V21.9513C32.1972 21.4926 32.1889 21.1892 32.1724 21.0409H32.8892C32.892 21.0519 32.8961 21.0917 32.9016 21.1603C32.9071 21.2262 32.9126 21.3292 32.918 21.4693C32.9263 21.6093 32.9304 21.7055 32.9304 21.7576H32.9469C33.0787 21.483 33.2531 21.2825 33.47 21.1562C33.687 21.0271 33.9726 20.9626 34.3269 20.9626C34.8761 20.9626 35.2867 21.1466 35.5586 21.5146C35.8305 21.8826 35.9664 22.4607 35.9664 23.2489ZM35.1878 23.2653C35.1878 22.6447 35.1041 22.2012 34.9365 21.9348C34.769 21.6684 34.5026 21.5352 34.1374 21.5352C33.8435 21.5352 33.6129 21.597 33.4453 21.7206C33.2806 21.8441 33.1542 22.0378 33.0663 22.3014C32.9812 22.5623 32.9386 22.9028 32.9386 23.323C32.9386 23.908 33.032 24.3391 33.2188 24.6165C33.4055 24.8939 33.709 25.0326 34.1291 25.0326C34.4971 25.0326 34.7649 24.898 34.9324 24.6289C35.1027 24.357 35.1878 23.9025 35.1878 23.2653ZM37.6512 21.0409V22.9275H39.6574V21.0409H40.3989V25.498H39.6574V23.4672H37.6512V25.498H36.9097V21.0409H37.6512ZM43.2536 22.9275C43.8166 22.9275 44.2423 23.0292 44.5306 23.2324C44.819 23.4329 44.9631 23.7514 44.9631 24.1881C44.9631 24.611 44.8148 24.9351 44.5183 25.1603C44.2217 25.3855 43.8015 25.498 43.2577 25.498H41.5729V21.0409H42.3144V22.9275H43.2536ZM42.3144 24.9749H43.1465C43.5035 24.9749 43.7644 24.9117 43.9292 24.7854C44.094 24.6591 44.1763 24.46 44.1763 24.1881C44.1763 23.9299 44.0967 23.7418 43.9374 23.6237C43.7781 23.5029 43.5159 23.4425 43.1506 23.4425H42.3144V24.9749ZM45.7252 25.498V21.0409H46.4667V25.498H45.7252ZM48.3534 21.0409V23.4795L48.3122 24.6206L50.3678 21.0409H51.1793V25.498H50.4708V22.7792C50.4708 22.6804 50.4749 22.5307 50.4831 22.3302C50.4941 22.1298 50.5037 21.987 50.512 21.9018L48.4276 25.498H47.6366V21.0409H48.3534ZM49.4162 20.5548C48.4385 20.5548 47.9346 20.1154 47.9044 19.2366H48.58C48.6129 19.7831 48.8917 20.0563 49.4162 20.0563C49.9407 20.0563 50.2195 19.7831 50.2524 19.2366H50.928C50.8978 20.1154 50.3939 20.5548 49.4162 20.5548ZM56.5633 23.5331C56.4919 23.5331 56.4109 23.5249 56.3203 23.5084C56.2324 23.4919 56.1624 23.4727 56.1102 23.4507L54.965 25.498H54.1411L55.5953 23.0594C55.4992 22.9797 55.3234 22.7532 55.068 22.3797L54.1782 21.0409H54.9527L55.5623 22.0254C55.7436 22.3165 55.8836 22.5266 55.9825 22.6557C56.0814 22.782 56.1706 22.8699 56.2503 22.9193C56.3327 22.9687 56.437 22.9935 56.5633 22.9935V21.0409H57.3048V22.9935C57.3872 22.9935 57.4614 22.9825 57.5273 22.9605C57.5932 22.9385 57.6618 22.8932 57.7333 22.8246C57.8047 22.7532 57.8857 22.6543 57.9763 22.528C58.0669 22.4016 58.38 21.9059 58.9155 21.0409H59.69L58.8002 22.3797C58.5448 22.7532 58.369 22.9797 58.2729 23.0594L59.727 25.498H58.9032L57.758 23.4507C57.7058 23.4727 57.6344 23.4919 57.5438 23.5084C57.4559 23.5249 57.3762 23.5331 57.3048 23.5331V25.498H56.5633V23.5331ZM60.6415 27.2488C60.4383 27.2488 60.2681 27.2337 60.1307 27.2035V26.6474C60.2351 26.6638 60.3504 26.6721 60.4768 26.6721C60.9381 26.6721 61.3034 26.3329 61.5725 25.6546L61.6426 25.4774L59.8753 21.0409H60.6663L61.6055 23.5043C61.6192 23.5427 61.6357 23.5894 61.6549 23.6443C61.6741 23.6965 61.7359 23.875 61.8403 24.1798C61.9446 24.4847 62.0009 24.6549 62.0092 24.6906L62.2975 23.8791L63.2738 21.0409H64.0565L62.3429 25.498C62.1589 25.9731 61.9872 26.326 61.8279 26.5567C61.6686 26.7902 61.4915 26.9632 61.2965 27.0758C61.1043 27.1911 60.886 27.2488 60.6415 27.2488ZM68.3118 23.2489C68.3118 24.8032 67.7653 25.5804 66.6723 25.5804C65.9858 25.5804 65.5244 25.3223 65.2882 24.806H65.2676C65.2786 24.828 65.2841 25.0614 65.2841 25.5063V27.2488H64.5426V21.9513C64.5426 21.4926 64.5344 21.1892 64.5179 21.0409H65.2347C65.2374 21.0519 65.2415 21.0917 65.247 21.1603C65.2525 21.2262 65.258 21.3292 65.2635 21.4693C65.2717 21.6093 65.2759 21.7055 65.2759 21.7576H65.2923C65.4242 21.483 65.5985 21.2825 65.8155 21.1562C66.0325 21.0271 66.3181 20.9626 66.6723 20.9626C67.2216 20.9626 67.6321 21.1466 67.904 21.5146C68.1759 21.8826 68.3118 22.4607 68.3118 23.2489ZM67.5333 23.2653C67.5333 22.6447 67.4495 22.2012 67.282 21.9348C67.1145 21.6684 66.8481 21.5352 66.4828 21.5352C66.189 21.5352 65.9583 21.597 65.7908 21.7206C65.626 21.8441 65.4997 22.0378 65.4118 22.3014C65.3267 22.5623 65.2841 22.9028 65.2841 23.323C65.2841 23.908 65.3775 24.3391 65.5642 24.6165C65.751 24.8939 66.0544 25.0326 66.4746 25.0326C66.8426 25.0326 67.1104 24.898 67.2779 24.6289C67.4481 24.357 67.5333 23.9025 67.5333 23.2653ZM69.9967 21.0409V22.9275H72.0028V21.0409H72.7443V25.498H72.0028V23.4672H69.9967V25.498H69.2552V21.0409H69.9967ZM75.0388 25.5804C74.5912 25.5804 74.2548 25.4623 74.0296 25.2262C73.8044 24.99 73.6918 24.6659 73.6918 24.254C73.6918 23.7926 73.8428 23.4384 74.1449 23.1912C74.4497 22.944 74.9399 22.8122 75.6155 22.7957L76.6165 22.7792V22.5362C76.6165 22.1737 76.5396 21.9142 76.3858 21.7576C76.2321 21.6011 75.9904 21.5228 75.6608 21.5228C75.3285 21.5228 75.0869 21.5791 74.9358 21.6917C74.7848 21.8043 74.6942 21.9842 74.6639 22.2314L73.8895 22.1613C74.0158 21.3594 74.6118 20.9585 75.6773 20.9585C76.2376 20.9585 76.6591 21.0876 76.942 21.3457C77.2248 21.6011 77.3663 21.9718 77.3663 22.4579V24.3776C77.3663 24.5973 77.3951 24.7634 77.4528 24.876C77.5104 24.9859 77.6203 25.0408 77.7823 25.0408C77.8537 25.0408 77.9347 25.0312 78.0254 25.012V25.4733C77.8386 25.5173 77.6478 25.5392 77.4528 25.5392C77.1781 25.5392 76.9777 25.4678 76.8513 25.325C76.7278 25.1795 76.6577 24.9529 76.6413 24.6453H76.6165C76.427 24.9859 76.206 25.2275 75.9533 25.3703C75.7034 25.5104 75.3986 25.5804 75.0388 25.5804ZM75.2077 25.0243C75.4796 25.0243 75.7213 24.9625 75.9327 24.8389C76.1442 24.7154 76.3103 24.5465 76.4312 24.3323C76.5547 24.1153 76.6165 23.8929 76.6165 23.6649V23.2983L75.805 23.3148C75.4562 23.3203 75.1912 23.356 75.01 23.4219C74.8315 23.4878 74.6942 23.5894 74.598 23.7267C74.5019 23.864 74.4539 24.0439 74.4539 24.2663C74.4539 24.508 74.5184 24.6948 74.6475 24.8266C74.7793 24.9584 74.966 25.0243 75.2077 25.0243ZM81.6216 25.498V21.5805H80.0768C79.9148 22.7779 79.7898 23.5866 79.702 24.0068C79.6141 24.4243 79.5193 24.7401 79.4177 24.9543C79.3161 25.1685 79.1898 25.3264 79.0387 25.428C78.8904 25.5296 78.6982 25.5804 78.462 25.5804C78.3247 25.5804 78.1956 25.5626 78.0748 25.5269V24.9955C78.1435 25.0202 78.2368 25.0326 78.3549 25.0326C78.506 25.0326 78.6268 24.957 78.7174 24.806C78.8108 24.6549 78.8946 24.3941 78.9687 24.0233C79.0456 23.6526 79.1321 23.1047 79.2282 22.3797L79.4095 21.0409H82.3672V25.498H81.6216Z" fill="#A09178"/>
</svg>
