<svg width="173" height="32" viewBox="0 0 173 32" fill="none" xmlns="http://www.w3.org/2000/svg">
<g clip-path="url(#clip0_3422_37740)">
<path d="M21.56 24.6889V13.7089C21.56 12.0889 20.84 10.9389 18.97 10.9389C17.35 10.9389 16.02 12.0189 15.37 12.9589V24.6889H10.76V13.7089C10.76 12.0889 10.04 10.9389 8.17 10.9389C6.59 10.9389 5.25 12.0189 4.57 12.9889V24.6889H0V7.30891H4.57V9.57891C5.29 8.53891 7.59 6.87891 10.26 6.87891C12.93 6.87891 14.44 8.06891 15.08 10.0489C16.09 8.46891 18.39 6.87891 21.06 6.87891C24.26 6.87891 26.17 8.56891 26.17 12.1389V24.6989H21.56V24.6889Z" fill="#EA6442"/>
<path d="M41.1108 24.6916V22.8916C39.9208 24.2916 37.8708 25.1216 35.6008 25.1216C32.8308 25.1216 29.5508 23.2516 29.5508 19.3616C29.5508 15.4716 32.8308 13.7416 35.6008 13.7416C37.9008 13.7416 39.9608 14.5016 41.1108 15.8616V13.5216C41.1108 11.7616 39.6008 10.6016 37.2908 10.6016C35.4208 10.6016 33.6908 11.2816 32.2108 12.6516L30.4808 9.59156C32.6008 7.72156 35.3408 6.85156 38.0708 6.85156C42.0308 6.85156 45.6708 8.43156 45.6708 13.4416V24.6716H41.1008L41.1108 24.6916ZM41.1108 20.5216V18.3616C40.3508 17.3516 38.9108 16.8516 37.4408 16.8516C35.6408 16.8516 34.1608 17.7916 34.1608 19.4816C34.1608 21.1716 35.6408 22.0416 37.4408 22.0416C38.9208 22.0416 40.3608 21.5416 41.1108 20.5316V20.5216Z" fill="#EA6442"/>
<path d="M60.9795 24.6908L57.0195 18.8208L53.0195 24.6908H47.9395L54.0995 15.7608L48.3095 7.30078H53.4195L57.0195 12.6608L60.5795 7.30078H65.6895L59.8595 15.7608L66.0895 24.6908H60.9795Z" fill="#EA6442"/>
<path d="M80.31 24.6897V22.4597C78.94 24.1897 77.03 25.1197 74.95 25.1197C70.56 25.1197 67.25 21.8097 67.25 16.0097C67.25 10.2097 70.53 6.86969 74.95 6.86969C77 6.86969 78.95 7.76969 80.31 9.52969V0.679688H84.92V24.6897H80.31ZM80.31 19.0797V12.9197C79.55 11.7697 77.9 10.9397 76.35 10.9397C73.76 10.9397 71.96 12.9897 71.96 16.0197C71.96 19.0497 73.76 21.0597 76.35 21.0597C77.9 21.0597 79.55 20.2297 80.31 19.0797Z" fill="black"/>
<path d="M88.3398 15.9811C88.3398 10.9411 92.0498 6.87109 97.3398 6.87109C102.63 6.87109 106.05 10.7611 106.05 16.4411V17.4511H93.1298C93.4198 19.6511 95.1798 21.4811 98.1298 21.4811C99.6098 21.4811 101.66 20.8311 102.77 19.7511L104.79 22.7011C103.06 24.2811 100.33 25.1111 97.6298 25.1111C92.3398 25.1111 88.3398 21.5511 88.3398 15.9711V15.9811ZM97.3398 10.5111C94.4998 10.5111 93.2698 12.6311 93.0598 14.3611H101.63C101.52 12.7011 100.37 10.5111 97.3498 10.5111H97.3398Z" fill="black"/>
<path d="M107.85 22.4306L109.83 19.2306C111.09 20.4206 113.68 21.6106 115.84 21.6106C117.82 21.6106 118.76 20.8206 118.76 19.7406C118.76 16.8606 108.43 19.2006 108.43 12.3606C108.43 9.44062 110.99 6.89062 115.56 6.89062C118.51 6.89062 120.85 7.90063 122.58 9.27063L120.74 12.4006C119.7 11.2806 117.72 10.3806 115.59 10.3806C113.93 10.3806 112.85 11.1406 112.85 12.1106C112.85 14.7006 123.14 12.5406 123.14 19.5606C123.14 22.7306 120.44 25.1406 115.62 25.1406C112.6 25.1406 109.68 24.1306 107.84 22.4406L107.85 22.4306Z" fill="#231300"/>
<path d="M126.07 2.7C126.07 1.19 127.33 0 128.81 0C130.29 0 131.55 1.19 131.55 2.7C131.55 4.21 130.33 5.44 128.81 5.44C127.29 5.44 126.07 4.22 126.07 2.7ZM126.54 24.69V7.31H131.11V24.7H126.54V24.69Z" fill="#231300"/>
<path d="M135.289 29.1584L137.339 25.8484C138.739 27.3984 140.579 28.0084 142.769 28.0084C144.959 28.0084 147.559 27.0384 147.559 23.6184V21.8584C146.189 23.5884 144.319 24.5984 142.199 24.5984C137.839 24.5984 134.529 21.5384 134.529 15.7484C134.529 9.95844 137.809 6.89844 142.199 6.89844C144.289 6.89844 146.159 7.79844 147.559 9.55844V7.32844H152.169V23.5284C152.169 30.1484 147.059 31.7684 142.769 31.7684C139.779 31.7684 137.479 31.0884 135.279 29.1784L135.289 29.1584ZM147.559 18.5384V12.9184C146.799 11.7684 145.149 10.9384 143.639 10.9384C141.049 10.9384 139.249 12.7384 139.249 15.7284C139.249 18.7184 141.049 20.5184 143.639 20.5184C145.149 20.5184 146.809 19.6584 147.559 18.5384Z" fill="#231300"/>
<path d="M168.441 24.6889V14.1789C168.441 11.7689 167.181 10.9389 165.241 10.9389C163.441 10.9389 162.041 11.9489 161.281 12.9889V24.6889H156.711V7.30891H161.281V9.57891C162.401 8.24891 164.521 6.87891 167.361 6.87891C171.181 6.87891 173.011 9.03891 173.011 12.4189V24.6889H168.441Z" fill="#231300"/>
</g>
<defs>
<clipPath id="clip0_3422_37740">
<rect width="173.01" height="31.75" fill="white"/>
</clipPath>
</defs>
</svg>
