<svg width="173" height="32" viewBox="0 0 173 32" fill="none" xmlns="http://www.w3.org/2000/svg">
<g clip-path="url(#clip0_111_2)">
<path d="M21.56 24.69V13.71C21.56 12.09 20.84 10.94 18.97 10.94C17.35 10.94 16.02 12.02 15.37 12.96V24.69H10.76V13.71C10.76 12.09 10.04 10.94 8.17 10.94C6.59 10.94 5.25 12.02 4.57 12.99V24.69H0V7.31H4.57V9.58C5.29 8.54 7.59 6.88 10.26 6.88C12.93 6.88 14.44 8.07 15.08 10.05C16.09 8.47 18.39 6.88 21.06 6.88C24.26 6.88 26.17 8.57 26.17 12.14V24.7H21.56V24.69Z" fill="#EA6442"/>
<path d="M41.11 24.69V22.89C39.92 24.29 37.87 25.12 35.6 25.12C32.83 25.12 29.55 23.25 29.55 19.36C29.55 15.47 32.83 13.74 35.6 13.74C37.9 13.74 39.96 14.5 41.11 15.86V13.52C41.11 11.76 39.6 10.6 37.29 10.6C35.42 10.6 33.69 11.28 32.21 12.65L30.48 9.59C32.6 7.72 35.34 6.85 38.07 6.85C42.03 6.85 45.67 8.43 45.67 13.44V24.67H41.1L41.11 24.69ZM41.11 20.52V18.36C40.35 17.35 38.91 16.85 37.44 16.85C35.64 16.85 34.16 17.79 34.16 19.48C34.16 21.17 35.64 22.04 37.44 22.04C38.92 22.04 40.36 21.54 41.11 20.53V20.52Z" fill="#EA6442"/>
<path d="M60.98 24.69L57.02 18.82L53.02 24.69H47.94L54.1 15.76L48.31 7.3H53.42L57.02 12.66L60.58 7.3H65.69L59.86 15.76L66.09 24.69H60.98Z" fill="#EA6442"/>
<path d="M80.31 24.69V22.46C78.94 24.19 77.03 25.12 74.95 25.12C70.56 25.12 67.25 21.81 67.25 16.01C67.25 10.21 70.53 6.87 74.95 6.87C77 6.87 78.95 7.77 80.31 9.53V0.68H84.92V24.69H80.31ZM80.31 19.08V12.92C79.55 11.77 77.9 10.94 76.35 10.94C73.76 10.94 71.96 12.99 71.96 16.02C71.96 19.05 73.76 21.06 76.35 21.06C77.9 21.06 79.55 20.23 80.31 19.08Z" fill="black"/>
<path d="M88.34 15.98C88.34 10.94 92.05 6.87 97.34 6.87C102.63 6.87 106.05 10.76 106.05 16.44V17.45H93.13C93.42 19.65 95.18 21.48 98.13 21.48C99.61 21.48 101.66 20.83 102.77 19.75L104.79 22.7C103.06 24.28 100.33 25.11 97.63 25.11C92.34 25.11 88.34 21.55 88.34 15.97V15.98ZM97.34 10.51C94.5 10.51 93.27 12.63 93.06 14.36H101.63C101.52 12.7 100.37 10.51 97.35 10.51H97.34Z" fill="black"/>
<path d="M107.85 22.43L109.83 19.23C111.09 20.42 113.68 21.61 115.84 21.61C117.82 21.61 118.76 20.82 118.76 19.74C118.76 16.86 108.43 19.2 108.43 12.36C108.43 9.44 110.99 6.89 115.56 6.89C118.51 6.89 120.85 7.9 122.58 9.27L120.74 12.4C119.7 11.28 117.72 10.38 115.59 10.38C113.93 10.38 112.85 11.14 112.85 12.11C112.85 14.7 123.14 12.54 123.14 19.56C123.14 22.73 120.44 25.14 115.62 25.14C112.6 25.14 109.68 24.13 107.84 22.44L107.85 22.43Z" fill="black"/>
<path d="M126.07 2.7C126.07 1.19 127.33 0 128.81 0C130.29 0 131.55 1.19 131.55 2.7C131.55 4.21 130.33 5.44 128.81 5.44C127.29 5.44 126.07 4.22 126.07 2.7ZM126.54 24.69V7.31H131.11V24.7H126.54V24.69Z" fill="black"/>
<path d="M135.29 29.16L137.34 25.85C138.74 27.4 140.58 28.01 142.77 28.01C144.96 28.01 147.56 27.04 147.56 23.62V21.86C146.19 23.59 144.32 24.6 142.2 24.6C137.84 24.6 134.53 21.54 134.53 15.75C134.53 9.96 137.81 6.9 142.2 6.9C144.29 6.9 146.16 7.8 147.56 9.56V7.33H152.17V23.53C152.17 30.15 147.06 31.77 142.77 31.77C139.78 31.77 137.48 31.09 135.28 29.18L135.29 29.16ZM147.56 18.54V12.92C146.8 11.77 145.15 10.94 143.64 10.94C141.05 10.94 139.25 12.74 139.25 15.73C139.25 18.72 141.05 20.52 143.64 20.52C145.15 20.52 146.81 19.66 147.56 18.54Z" fill="black"/>
<path d="M168.44 24.69V14.18C168.44 11.77 167.18 10.94 165.24 10.94C163.44 10.94 162.04 11.95 161.28 12.99V24.69H156.71V7.31H161.28V9.58C162.4 8.25 164.52 6.88 167.36 6.88C171.18 6.88 173.01 9.04 173.01 12.42V24.69H168.44Z" fill="black"/>
</g>
<defs>
<clipPath id="clip0_111_2">
<rect width="173.01" height="31.75" fill="white"/>
</clipPath>
</defs>
</svg>
