<svg xmlns="http://www.w3.org/2000/svg" width="46" height="40" viewBox="0 0 46 40" fill="none">
  <path d="M13.991 0L19.9103 5.73991C15.0075 8.96861 11.6592 12.7952 9.86547 17.2197C8.19133 21.5247 8.25112 24.6338 10.0448 26.5471C12.1973 25.71 14.3498 25.8894 16.5022 27.0852C18.6547 28.281 19.7309 30.1943 19.7309 32.8251C19.7309 34.858 19.0135 36.5919 17.5785 38.0269C16.1435 39.3423 14.4096 40 12.3767 40C8.78924 40 5.7997 38.5052 3.40807 35.5157C1.13602 32.4066 0 28.6398 0 24.2153C0 14.4096 4.66368 6.33782 13.991 0ZM36.0538 26.5471C38.2063 25.71 40.3587 25.8894 42.5112 27.0852C44.6637 28.281 45.7399 30.1943 45.7399 32.8251C45.7399 34.858 45.0224 36.5919 43.5874 38.0269C42.1525 39.3423 40.4185 40 38.3856 40C34.7982 40 31.8087 38.5052 29.417 35.5157C27.145 32.4066 26.009 28.6398 26.009 24.2153C26.009 14.4096 30.6726 6.33782 40 0L45.9193 5.73991C41.0164 8.96861 37.6682 12.7952 35.8744 17.2197C34.2003 21.5247 34.2601 24.6338 36.0538 26.5471Z" fill="#A09178"/>
</svg>
