<svg width="97" height="60" viewBox="0 0 97 60" fill="none" xmlns="http://www.w3.org/2000/svg">
<path d="M61.9821 25.9519C61.9821 26.0526 61.8813 26.103 61.7805 26.103H57.598C57.4972 26.103 57.4468 26.0023 57.4468 25.9519V21.5678H53.0627C52.9619 21.5678 52.9115 21.467 52.9115 21.4166V17.0325V12.4972V7.96193H43.7906V12.4972V17.0325V21.4166C43.7906 21.5174 43.7402 21.5678 43.6394 21.5678H39.2553V25.9519C39.2553 26.0526 39.2049 26.103 39.1041 26.103H34.9216C34.8208 26.103 34.7704 26.0526 34.7704 25.9519V21.5678V17.1837C34.7704 17.0829 34.8208 17.0325 34.9216 17.0325H39.2553V12.4972V7.96193V3.57783C39.2553 3.47705 39.3561 3.42665 39.4065 3.42665H57.2452C57.346 3.42665 57.3964 3.52744 57.3964 3.57783V7.96193V12.4972V17.0325H61.8309C61.8813 17.0325 61.9821 17.0829 61.9821 17.1333V21.5678V25.9519ZM48.3762 0C38.2979 0 30.1848 7.35723 30.1848 16.4782C30.1848 25.5487 38.2979 32.9563 48.3762 32.9563C58.4546 32.9563 66.5677 25.5991 66.5677 16.4782C66.5173 7.35723 58.4042 0 48.3762 0Z" fill="#A09178"/>
<path d="M1.38458 43.0309C0.96501 42.8211 0.629354 42.4855 0.377613 42.0659C0.125871 41.6463 0 41.1848 0 40.6813C0 40.1779 0.125871 39.7163 0.377613 39.2968C0.629354 38.8772 0.96501 38.5835 1.38458 38.3317C1.80415 38.122 2.30763 37.9961 2.81111 37.9961C3.27264 37.9961 3.65025 38.08 4.02786 38.2478C4.40547 38.4157 4.69917 38.6254 4.95092 38.9191L4.19569 39.6324C3.86004 39.2128 3.39851 39.0031 2.89503 39.0031C2.55937 39.0031 2.26567 39.087 2.01393 39.2128C1.76219 39.3387 1.55241 39.5485 1.42654 39.8002C1.30066 40.052 1.21675 40.3457 1.21675 40.6813C1.21675 41.017 1.30066 41.3107 1.42654 41.5624C1.55241 41.8142 1.76219 42.024 2.01393 42.1498C2.26567 42.2757 2.55937 42.3596 2.89503 42.3596C3.39851 42.3596 3.86004 42.1498 4.19569 41.7303L4.95092 42.4435C4.69917 42.7372 4.40547 42.989 4.02786 43.1148C3.65025 43.2827 3.27264 43.3666 2.81111 43.3666C2.30763 43.3666 1.80415 43.2827 1.38458 43.0309Z" fill="#A09178"/>
<path d="M8.18175 42.4426C8.34958 42.3586 8.43349 42.2328 8.51741 42.023V41.6034H7.72023C7.2587 41.6034 7.00696 41.7712 7.00696 42.0649C7.00696 42.2328 7.04891 42.3167 7.17478 42.4006C7.30065 42.4845 7.46848 42.5265 7.63631 42.5265C7.8461 42.5684 8.05588 42.5265 8.18175 42.4426ZM9.18872 39.6734C9.52437 39.9671 9.6922 40.4286 9.6922 41.016V43.2817H8.60132V42.7782C8.39154 43.1558 7.97197 43.3237 7.38457 43.3237C7.09087 43.3237 6.79717 43.2817 6.58739 43.1558C6.37761 43.0719 6.20978 42.9041 6.0839 42.7363C5.95803 42.5684 5.91608 42.3586 5.91608 42.1069C5.91608 41.7293 6.04195 41.4356 6.33565 41.2258C6.62934 41.016 7.04892 40.8902 7.63631 40.8902H8.55936C8.55936 40.6384 8.47545 40.4286 8.34958 40.3028C8.18175 40.1769 7.97197 40.093 7.67827 40.093C7.46848 40.093 7.2587 40.1349 7.04892 40.1769C6.83913 40.2608 6.6713 40.3447 6.54543 40.4286L6.12586 39.6314C6.33565 39.4636 6.58739 39.3797 6.92304 39.2958C7.21674 39.2119 7.5524 39.1699 7.8461 39.1699C8.39154 39.2538 8.85306 39.3797 9.18872 39.6734Z" fill="#A09178"/>
<path d="M11.1605 39.2969H12.2934V40.8493H14.0136V39.2969H15.1884V43.2828H14.0136V41.8143H12.2934V43.2828H11.1605V39.2969Z" fill="#A09178"/>
<path d="M18.4607 41.7723H17.8733V43.2828H16.6985V39.2969H17.8733V40.8493H18.5027L19.5516 39.2969H20.8103L19.4257 41.2269L20.8942 43.2828H19.5516L18.4607 41.7723Z" fill="#A09178"/>
<path d="M25.4677 40.2619H24.1251V43.2828H22.9922V40.2619H21.6077V39.2969H25.4677V40.2619Z" fill="#A09178"/>
<path d="M28.4045 40.7227H26.3067V41.6457H28.4045V40.7227Z" fill="#A09178"/>
<path d="M34.6142 38.0801V43.2827H33.4394V39.087H31.0899V43.2827H29.8731V38.0801H34.6142Z" fill="#A09178"/>
<path d="M37.3834 40.3448C37.2156 40.5126 37.0897 40.6804 37.0478 40.9322H39.0198C38.9778 40.6804 38.8519 40.4707 38.6841 40.3448C38.5163 40.177 38.3065 40.135 38.0128 40.135C37.803 40.093 37.5513 40.177 37.3834 40.3448ZM40.1106 41.6035H37.0897C37.1317 41.8552 37.2576 42.065 37.4674 42.1909C37.6771 42.3168 37.9289 42.4007 38.2226 42.4007C38.4324 42.4007 38.6002 42.3587 38.768 42.3168C38.9358 42.2748 39.0617 42.1489 39.2295 42.0231L39.8589 42.6944C39.4813 43.1139 38.9358 43.3237 38.2226 43.3237C37.7611 43.3237 37.3834 43.2398 37.0478 43.072C36.7121 42.9042 36.4184 42.6524 36.2506 42.3587C36.0828 42.065 35.9569 41.6874 35.9569 41.3098C35.9569 40.9322 36.0408 40.5546 36.2506 40.2609C36.4184 39.9672 36.7121 39.7154 37.0058 39.5056C37.3415 39.3378 37.6771 39.2539 38.0967 39.2539C38.4743 39.2539 38.8519 39.3378 39.1456 39.5056C39.4813 39.6735 39.6911 39.9252 39.9009 40.2189C40.0687 40.5546 40.1526 40.8902 40.1526 41.3098C40.1106 41.3098 40.1106 41.4357 40.1106 41.6035Z" fill="#A09178"/>
<path d="M44.8099 40.2619H43.4672V43.2828H42.2924V40.2619H40.9498V39.2969H44.8099V40.2619Z" fill="#A09178"/>
<path d="M47.0336 40.3448C46.8658 40.5126 46.7399 40.6804 46.698 40.9322H48.67C48.628 40.6804 48.5021 40.4707 48.3343 40.3448C48.1665 40.177 47.9567 40.135 47.663 40.135C47.4532 40.093 47.2015 40.177 47.0336 40.3448ZM49.7608 41.6035H46.74C46.7819 41.8552 46.9078 42.065 47.1176 42.1909C47.3273 42.3168 47.5791 42.4007 47.8728 42.4007C48.0826 42.4007 48.2504 42.3587 48.4182 42.3168C48.5861 42.2748 48.7119 42.1489 48.8798 42.0231L49.5091 42.6944C49.1315 43.1139 48.5861 43.3237 47.8728 43.3237C47.4113 43.3237 47.0336 43.2398 46.698 43.072C46.3623 42.9042 46.0686 42.6524 45.9008 42.3587C45.733 42.065 45.6071 41.6874 45.6071 41.3098C45.6071 40.9322 45.691 40.5546 45.9008 40.2609C46.0686 39.9672 46.3623 39.7154 46.656 39.5056C46.9917 39.3378 47.3273 39.2539 47.7469 39.2539C48.1245 39.2539 48.5021 39.3378 48.7958 39.5056C49.1315 39.6735 49.3413 39.9252 49.5511 40.2189C49.7189 40.5546 49.8028 40.8902 49.8028 41.3098C49.7609 41.3098 49.7608 41.4357 49.7608 41.6035Z" fill="#A09178"/>
<path d="M53.9565 42.107C54.1663 41.8972 54.2502 41.6454 54.2502 41.3098C54.2502 40.9741 54.1663 40.7224 53.9565 40.5126C53.7467 40.3028 53.5369 40.2189 53.2432 40.2189C52.9496 40.2189 52.6978 40.3028 52.53 40.5126C52.3202 40.7224 52.2363 40.9741 52.2363 41.3098C52.2363 41.6454 52.3202 41.8972 52.53 42.107C52.7398 42.3168 52.9496 42.4007 53.2432 42.4007C53.495 42.4007 53.7467 42.3168 53.9565 42.107ZM54.418 39.5056C54.7117 39.6735 54.9635 39.9252 55.1313 40.2189C55.2991 40.5126 55.3831 40.8902 55.3831 41.3098C55.3831 41.7294 55.2991 42.065 55.1313 42.4007C54.9635 42.6944 54.7117 42.9461 54.418 43.1139C54.1243 43.2818 53.7887 43.3657 53.4111 43.3657C52.9076 43.3657 52.488 43.1979 52.1943 42.8622V44.7083H51.0195V39.2959H52.1104V39.7574C52.4041 39.4217 52.8237 39.2539 53.3691 39.2539C53.7887 39.2539 54.1243 39.3378 54.418 39.5056Z" fill="#A09178"/>
<path d="M59.411 42.1914C59.5789 41.9816 59.6628 41.7718 59.6628 41.4361C59.6628 41.1424 59.5789 40.8907 59.411 40.7229C59.2432 40.555 58.9915 40.4711 58.6978 40.4711C58.4041 40.4711 58.1523 40.555 57.9845 40.7229C57.8167 40.8907 57.6908 41.1424 57.6908 41.4361C57.6908 41.7298 57.7747 41.9816 57.9845 42.1914C58.1523 42.4011 58.4041 42.4851 58.6978 42.4851C58.9915 42.4851 59.2432 42.4011 59.411 42.1914ZM59.9565 39.7998C60.2502 39.9676 60.46 40.1774 60.6278 40.4711C60.7956 40.7648 60.8795 41.1005 60.8795 41.4361C60.8795 41.8137 60.7956 42.1494 60.5858 42.4431C60.418 42.7368 60.1243 42.9466 59.8306 43.1144C59.495 43.2822 59.1173 43.3662 58.6978 43.3662C57.9845 43.3662 57.4391 43.1564 57.0615 42.6948C56.6838 42.2333 56.4741 41.604 56.4741 40.7229C56.4741 39.9257 56.6419 39.2963 56.9775 38.7929C57.3132 38.3313 57.8586 37.9957 58.5719 37.8698L60.46 37.4922L60.6278 38.4992L58.9495 38.8348C58.488 38.9187 58.1523 39.0865 57.9426 39.2963C57.7328 39.5061 57.6069 39.7998 57.5649 40.1774C57.7328 40.0096 57.9426 39.8418 58.1943 39.7579C58.446 39.6739 58.6978 39.59 58.9915 39.59C59.3691 39.59 59.7047 39.632 59.9565 39.7998Z" fill="#A09178"/>
<path d="M65.956 39.2969L64.1519 43.5345C63.984 43.996 63.7323 44.3317 63.4806 44.4995C63.2288 44.6674 62.8932 44.7932 62.5156 44.7932C62.3058 44.7932 62.096 44.7513 61.8862 44.7093C61.6764 44.6254 61.5086 44.5415 61.3827 44.4576L61.8023 43.6184C61.8862 43.7024 62.0121 43.7443 62.096 43.7863C62.2219 43.8282 62.3477 43.8702 62.4316 43.8702C62.5995 43.8702 62.7253 43.8282 62.8093 43.7443C62.8932 43.6604 62.9771 43.5345 63.061 43.3667V43.3247L61.3408 39.2969H62.5156L63.6484 42.0241L64.7812 39.2969H65.956Z" fill="#A09178"/>
<path d="M69.8582 42.107C70.068 41.8972 70.1519 41.6454 70.1519 41.3098C70.1519 40.9741 70.068 40.7224 69.8582 40.5126C69.6484 40.3028 69.4386 40.2189 69.1449 40.2189C68.8512 40.2189 68.5995 40.3028 68.4317 40.5126C68.2219 40.7224 68.138 40.9741 68.138 41.3098C68.138 41.6454 68.2219 41.8972 68.4317 42.107C68.6414 42.3168 68.8512 42.4007 69.1449 42.4007C69.4386 42.4007 69.6484 42.3168 69.8582 42.107ZM70.3197 39.5056C70.6134 39.6735 70.8651 39.9252 71.033 40.2189C71.2008 40.5126 71.2847 40.8902 71.2847 41.3098C71.2847 41.7294 71.2008 42.065 71.033 42.4007C70.8651 42.6944 70.6134 42.9461 70.3197 43.1139C70.026 43.2818 69.6904 43.3657 69.3127 43.3657C68.8093 43.3657 68.3897 43.1979 68.096 42.8622V44.7083H66.9212V39.2959H68.0121V39.7574C68.3058 39.4217 68.7254 39.2539 69.2708 39.2539C69.6904 39.2539 70.026 39.3378 70.3197 39.5056Z" fill="#A09178"/>
<path d="M75.7742 40.2619H73.7183V43.2828H72.5854V39.2969H75.7742V40.2619Z" fill="#A09178"/>
<path d="M77.6202 43.073C77.2846 42.9052 77.0328 42.6534 76.8231 42.3597C76.6133 42.066 76.5294 41.6884 76.5294 41.3108C76.5294 40.9332 76.6133 40.5556 76.8231 40.2619C77.0328 39.9682 77.2846 39.7164 77.6202 39.5486C77.9559 39.3808 78.3335 39.2969 78.7531 39.2969C79.1726 39.2969 79.5503 39.3808 79.844 39.5486C80.1376 39.7164 80.3894 39.9682 80.5153 40.3038L79.6342 40.8073C79.4244 40.4297 79.1307 40.2619 78.7531 40.2619C78.4594 40.2619 78.2076 40.3458 77.9978 40.5556C77.7881 40.7654 77.7041 41.0171 77.7041 41.3528C77.7041 41.6884 77.7881 41.9821 77.9978 42.1499C78.2076 42.3597 78.4594 42.4436 78.7531 42.4436C79.1307 42.4436 79.4663 42.2758 79.6342 41.8982L80.5153 42.4017C80.3894 42.7373 80.1376 42.9471 79.844 43.1569C79.5503 43.3247 79.1726 43.4087 78.7531 43.4087C78.3335 43.3667 77.9559 43.2828 77.6202 43.073Z" fill="#A09178"/>
<path d="M83.4942 41.7723H82.9068V43.2828H81.732V39.2969H82.9068V40.8493H83.4942L84.5851 39.2969H85.8438L84.4172 41.2269L85.9277 43.2828H84.5431L83.4942 41.7723Z" fill="#A09178"/>
<path d="M86.9347 39.2969H88.1095V41.6884L90.0395 39.2969H91.0884V43.2828H89.9556V40.9332L88.0256 43.2828H86.9347V39.2969Z" fill="#A09178"/>
<path d="M93.3121 37.7031H94.0673C94.0673 37.871 94.1092 37.9968 94.1932 38.1227C94.2771 38.2066 94.4029 38.2486 94.6127 38.2486C94.7806 38.2486 94.9484 38.2066 95.0323 38.1227C95.1162 38.0388 95.1582 37.871 95.1582 37.7031H95.9134C95.9134 38.4583 95.4519 38.836 94.6127 38.836C93.7736 38.8779 93.3121 38.5003 93.3121 37.7031ZM92.6407 39.2975H93.7736V41.689L95.7036 39.2975H96.7525V43.2834H95.6197V40.8918L93.6897 43.2834H92.6407V39.2975Z" fill="#A09178"/>
<path d="M23.7306 58.3041C23.8564 58.1782 23.9403 57.9684 23.9403 57.7167C23.9403 57.4649 23.8564 57.2971 23.7306 57.1293C23.6047 57.0034 23.3949 56.9195 23.1851 56.9195C22.9753 56.9195 22.8075 57.0034 22.6397 57.1293C22.5138 57.2552 22.4299 57.4649 22.4299 57.7167C22.4299 57.9684 22.5138 58.1362 22.6397 58.3041C22.7656 58.4299 22.9753 58.5139 23.1851 58.5139C23.3949 58.5139 23.5627 58.4299 23.7306 58.3041ZM22.5138 58.8495C22.304 58.7236 22.1362 58.5978 22.0523 58.388C21.9264 58.1782 21.8845 57.9684 21.8845 57.7167C21.8845 57.4649 21.9264 57.2552 22.0523 57.0454C22.1782 56.8356 22.304 56.7097 22.5138 56.5838C22.7236 56.458 22.9334 56.416 23.1851 56.416C23.4369 56.416 23.6886 56.458 23.8564 56.5838C24.0662 56.7097 24.234 56.8356 24.318 57.0454C24.4438 57.2552 24.4858 57.4649 24.4858 57.7167C24.4858 57.9684 24.4438 58.1782 24.318 58.388C24.1921 58.5978 24.0662 58.7236 23.8564 58.8495C23.6467 58.9754 23.4369 59.0173 23.1851 59.0173C22.9334 59.0173 22.6816 58.9754 22.5138 58.8495Z" fill="#A09178"/>
<path d="M25.7862 58.8495C25.5765 58.7236 25.4086 58.5978 25.2828 58.388C25.1569 58.1782 25.1149 57.9684 25.1149 57.7167C25.1149 57.4649 25.1569 57.2552 25.2828 57.0454C25.4086 56.8356 25.5765 56.7097 25.7443 56.5838C25.9541 56.458 26.1639 56.416 26.4575 56.416C26.7093 56.416 26.9191 56.458 27.0869 56.5838C27.2547 56.6678 27.4226 56.8356 27.5065 57.0034L27.0449 57.2552C26.961 57.1293 26.8771 57.0454 26.7932 57.0034C26.6673 56.9615 26.5834 56.9195 26.4575 56.9195C26.2478 56.9195 26.038 57.0034 25.9121 57.1293C25.7862 57.2552 25.7023 57.4649 25.7023 57.7167C25.7023 57.9684 25.7862 58.1362 25.9121 58.3041C26.038 58.4299 26.2478 58.5139 26.4575 58.5139C26.5834 58.5139 26.7093 58.4719 26.7932 58.4299C26.9191 58.388 27.003 58.3041 27.0449 58.1782L27.5065 58.4299C27.4226 58.5978 27.2547 58.7656 27.0869 58.8495C26.9191 58.9334 26.6673 59.0173 26.4575 59.0173C26.2478 59.0173 25.996 58.9754 25.7862 58.8495Z" fill="#A09178"/>
<path d="M28.304 56.5H28.8914V57.507H30.1501V56.5H30.7375V58.9755H30.1501V58.0104H28.8914V58.9755H28.304V56.5Z" fill="#A09178"/>
<path d="M33.4226 58.3041C33.5485 58.1782 33.6324 57.9684 33.6324 57.7167C33.6324 57.4649 33.5485 57.2971 33.4226 57.1293C33.2967 57.0034 33.0869 56.9195 32.8771 56.9195C32.6674 56.9195 32.4995 57.0034 32.3317 57.1293C32.2058 57.2552 32.1219 57.4649 32.1219 57.7167C32.1219 57.9684 32.2058 58.1362 32.3317 58.3041C32.4576 58.4299 32.6674 58.5139 32.8771 58.5139C33.0869 58.5139 33.2967 58.4299 33.4226 58.3041ZM32.2058 58.8495C31.996 58.7236 31.8282 58.5978 31.7443 58.388C31.6184 58.1782 31.5765 57.9684 31.5765 57.7167C31.5765 57.4649 31.6184 57.2552 31.7443 57.0454C31.8702 56.8356 31.996 56.7097 32.2058 56.5838C32.4156 56.458 32.6254 56.416 32.8771 56.416C33.1289 56.416 33.3806 56.458 33.5485 56.5838C33.7582 56.7097 33.9261 56.8356 34.01 57.0454C34.1358 57.2552 34.1778 57.4649 34.1778 57.7167C34.1778 57.9684 34.1358 58.1782 34.01 58.388C33.8841 58.5978 33.7582 58.7236 33.5485 58.8495C33.3387 58.9754 33.1289 59.0173 32.8771 59.0173C32.6254 59.0173 32.4156 58.9754 32.2058 58.8495Z" fill="#A09178"/>
<path d="M36.7373 58.2621C36.7373 58.1362 36.6953 58.0523 36.6114 58.0104C36.5275 57.9684 36.4016 57.9265 36.2758 57.9265H35.6045V58.5558H36.2758C36.5695 58.5558 36.7373 58.4719 36.7373 58.2621ZM35.6045 57.5069H36.2338C36.5275 57.5069 36.6953 57.423 36.6953 57.2132C36.6953 57.0034 36.5275 56.9195 36.2338 56.9195H35.6045V57.5069ZM37.3247 58.2621C37.3247 58.4719 37.2408 58.6397 37.073 58.7656C36.9051 58.8915 36.6534 58.9334 36.3177 58.9334H35.059V56.416H36.2758C36.5695 56.416 36.8212 56.458 36.989 56.5838C37.1569 56.7097 37.2408 56.8356 37.2408 57.0454C37.2408 57.1712 37.1988 57.2971 37.1569 57.381C37.073 57.4649 36.989 57.5489 36.8632 57.5908C37.1569 57.7586 37.3247 57.9684 37.3247 58.2621Z" fill="#A09178"/>
<path d="M39.4227 58.4709C39.5485 58.387 39.6324 58.3031 39.6744 58.1772V57.8836H39.087C38.7513 57.8836 38.5835 58.0094 38.5835 58.2192C38.5835 58.3451 38.6255 58.429 38.7094 58.4709C38.7933 58.5129 38.9192 58.5549 39.045 58.5549C39.1709 58.5968 39.2968 58.5549 39.4227 58.4709ZM39.9681 56.7088C40.1779 56.8766 40.2618 57.1703 40.2618 57.5059V58.9744H39.6744V58.6807C39.5905 58.8066 39.5066 58.8905 39.3807 58.9325C39.2548 58.9744 39.087 59.0164 38.9192 59.0164C38.7513 59.0164 38.5835 58.9744 38.4157 58.9325C38.2898 58.8486 38.1639 58.7646 38.08 58.6807C37.9961 58.5549 37.9542 58.429 37.9542 58.3031C37.9542 58.0933 38.0381 57.8836 38.2059 57.7577C38.3737 57.6318 38.6255 57.5479 39.0031 57.5479H39.6324V57.5059C39.6324 57.3381 39.5905 57.2122 39.4646 57.0864C39.3807 57.0025 39.2129 56.9605 39.0031 56.9605C38.8772 56.9605 38.7094 57.0025 38.5835 57.0444C38.4576 57.0864 38.3318 57.1283 38.2479 57.2122L38.0381 56.7927C38.164 56.7088 38.3318 56.6248 38.4996 56.5829C38.6674 56.5409 38.8772 56.499 39.087 56.499C39.4646 56.457 39.7583 56.5409 39.9681 56.7088Z" fill="#A09178"/>
<path d="M41.1849 56.5H41.7723V57.507H43.031V56.5H43.6184V58.9755H43.031V58.0104H41.7723V58.9755H41.1849V56.5Z" fill="#A09178"/>
<path d="M47.7302 58.2621C47.7302 58.1362 47.6883 58.0523 47.6043 58.0104C47.5204 57.9684 47.3946 57.9265 47.2687 57.9265H46.5974V58.5558H47.2687C47.6044 58.5558 47.7302 58.4719 47.7302 58.2621ZM46.5974 57.5069H47.2267C47.5204 57.5069 47.6883 57.423 47.6883 57.2132C47.6883 57.0034 47.5204 56.9195 47.2267 56.9195H46.5974V57.5069ZM48.3176 58.2621C48.3176 58.4719 48.2337 58.6397 48.0659 58.7656C47.898 58.8915 47.6463 58.9334 47.3106 58.9334H46.0519V56.416H47.2687C47.5624 56.416 47.8141 56.458 47.982 56.5838C48.1498 56.7097 48.2337 56.8356 48.2337 57.0454C48.2337 57.1712 48.1917 57.2971 48.1498 57.381C48.0659 57.4649 47.982 57.5489 47.8561 57.5908C48.1498 57.7586 48.3176 57.9684 48.3176 58.2621Z" fill="#A09178"/>
<path d="M51.5062 55.7012V58.9738H50.9188V56.2047H50.2055V55.7012H51.5062Z" fill="#A09178"/>
<path d="M54.0654 57.0878C54.1913 56.9619 54.2332 56.836 54.2332 56.6682C54.2332 56.5004 54.1913 56.3745 54.0654 56.2906C53.9395 56.2067 53.7717 56.1227 53.5619 56.1227C53.3521 56.1227 53.2263 56.1647 53.1004 56.2906C52.9745 56.3745 52.9326 56.5423 52.9326 56.7101C52.9326 56.878 52.9745 57.0038 53.1004 57.1297C53.2263 57.2136 53.3941 57.2975 53.5619 57.2975C53.7717 57.2556 53.9395 57.2136 54.0654 57.0878ZM54.5689 56.0808C54.8206 56.3745 54.9465 56.7521 54.9465 57.2975C54.9465 57.6752 54.8626 57.9689 54.7367 58.2625C54.6108 58.5143 54.401 58.7241 54.1913 58.8499C53.9395 58.9758 53.6878 59.0597 53.3521 59.0597C53.1843 59.0597 53.0165 59.0597 52.8906 59.0178C52.7228 58.9758 52.5969 58.9339 52.513 58.8499L52.7228 58.3884C52.8906 58.5143 53.1004 58.5562 53.3521 58.5562C53.6878 58.5562 53.8976 58.4723 54.1073 58.2625C54.2752 58.0528 54.3591 57.801 54.3591 57.4234C54.2752 57.5493 54.1493 57.6332 53.9815 57.6752C53.8136 57.7171 53.6458 57.7591 53.478 57.7591C53.2682 57.7591 53.0584 57.7171 52.8906 57.6332C52.7228 57.5493 52.5969 57.4234 52.471 57.2975C52.3871 57.1297 52.3452 56.9619 52.3452 56.7521C52.3452 56.5423 52.3871 56.3325 52.513 56.2067C52.6389 56.0388 52.7647 55.913 52.9326 55.829C53.1004 55.7451 53.3102 55.7032 53.5619 55.7032C53.9815 55.6612 54.3171 55.7871 54.5689 56.0808Z" fill="#A09178"/>
<path d="M56.4991 56.2475C56.3732 56.3314 56.3312 56.4573 56.3312 56.5831C56.3312 56.709 56.3732 56.8349 56.4991 56.9188C56.6249 57.0027 56.7508 57.0447 56.9606 57.0447C57.1704 57.0447 57.2963 57.0027 57.4221 56.9188C57.548 56.8349 57.59 56.709 57.59 56.5831C57.59 56.4153 57.548 56.3314 57.4221 56.2475C57.2963 56.1636 57.1704 56.1216 56.9606 56.1216C56.7508 56.1216 56.6249 56.1636 56.4991 56.2475ZM57.506 58.4292C57.6319 58.3453 57.7158 58.2195 57.7158 58.0516C57.7158 57.8838 57.6319 57.7579 57.506 57.674C57.3802 57.5901 57.2123 57.5481 56.9606 57.5481C56.7508 57.5481 56.541 57.5901 56.4152 57.674C56.2893 57.7579 56.2054 57.8838 56.2054 58.0516C56.2054 58.2195 56.2893 58.3453 56.4152 58.4292C56.541 58.5132 56.7089 58.5551 56.9606 58.5551C57.1704 58.5551 57.3802 58.5132 57.506 58.4292ZM58.1774 57.5901C58.2613 57.716 58.3032 57.8838 58.3032 58.0516C58.3032 58.2614 58.2613 58.4292 58.1354 58.5971C58.0095 58.7649 57.8837 58.8488 57.6739 58.9327C57.4641 59.0166 57.2543 59.0586 56.9606 59.0586C56.7089 59.0586 56.4571 59.0166 56.2473 58.9327C56.0376 58.8488 55.8697 58.7229 55.7858 58.5971C55.6599 58.4292 55.618 58.2614 55.618 58.0516C55.618 57.8838 55.6599 57.716 55.7439 57.5901C55.8278 57.4642 55.9536 57.3384 56.1215 57.2544C55.9956 57.1705 55.8697 57.0866 55.8278 56.9607C55.7439 56.8349 55.7019 56.709 55.7019 56.5412C55.7019 56.3734 55.7439 56.2055 55.8697 56.0377C55.9536 55.9118 56.1215 55.786 56.2893 55.702C56.4571 55.6181 56.6669 55.5762 56.9186 55.5762C57.1704 55.5762 57.3802 55.6181 57.548 55.702C57.7158 55.786 57.8837 55.8699 57.9676 56.0377C58.0515 56.1636 58.1354 56.3314 58.1354 56.5412C58.1354 56.709 58.0934 56.8349 58.0095 56.9607C57.9256 57.0866 57.8417 57.1705 57.7158 57.2544C57.9256 57.3384 58.0934 57.4642 58.1774 57.5901Z" fill="#A09178"/>
<path d="M61.4081 55.7012V56.1207L60.1075 58.9738H59.4781L60.6949 56.2047H59.4362V56.7921H58.8488V55.7012H61.4081Z" fill="#A09178"/>
<path d="M65.5199 56.9615H64.1772V58.9755H63.5898V56.5H65.5199V56.9615Z" fill="#A09178"/>
<path d="M67.8274 58.3041C67.9532 58.1782 68.0372 57.9684 68.0372 57.7167C68.0372 57.4649 67.9532 57.2971 67.8274 57.1293C67.7015 57.0034 67.4917 56.9195 67.2819 56.9195C67.0721 56.9195 66.9043 57.0034 66.7365 57.1293C66.6106 57.2552 66.5267 57.4649 66.5267 57.7167C66.5267 57.9684 66.6106 58.1362 66.7365 58.3041C66.8624 58.4299 67.0721 58.5139 67.2819 58.5139C67.4917 58.5139 67.7015 58.4299 67.8274 58.3041ZM66.6106 58.8495C66.4008 58.7236 66.233 58.5978 66.1491 58.388C66.0232 58.1782 65.9813 57.9684 65.9813 57.7167C65.9813 57.4649 66.0232 57.2552 66.1491 57.0454C66.275 56.8356 66.4008 56.7097 66.6106 56.5838C66.8204 56.458 67.0302 56.416 67.2819 56.416C67.5337 56.416 67.7854 56.458 67.9532 56.5838C68.163 56.7097 68.3309 56.8356 68.4148 57.0454C68.5406 57.2552 68.5826 57.4649 68.5826 57.7167C68.5826 57.9684 68.5406 58.1782 68.4148 58.388C68.2889 58.5978 68.163 58.7236 67.9532 58.8495C67.7435 58.9754 67.5337 59.0173 67.2819 59.0173C67.0302 59.0173 66.8204 58.9754 66.6106 58.8495Z" fill="#A09178"/>
<path d="M70.135 58.0944C70.0931 58.2622 70.0511 58.43 69.9672 58.5139H71.184V56.9615H70.219V57.3811C70.177 57.6748 70.177 57.8846 70.135 58.0944ZM72.149 58.472V59.5209H71.5616V58.9755H69.6316V59.5209H69.0861V58.472H69.212C69.3798 58.472 69.4637 58.3461 69.5476 58.1783C69.5896 57.9685 69.6316 57.7168 69.6735 57.3391L69.7155 56.5H71.7714V58.5139H72.149V58.472Z" fill="#A09178"/>
<path d="M75.3795 56.5L74.2047 59.1852C74.0789 59.437 73.953 59.6468 73.8271 59.7726C73.6593 59.8985 73.4915 59.9405 73.2397 59.9405C73.1139 59.9405 72.988 59.9405 72.8621 59.8985C72.7363 59.8566 72.6523 59.8146 72.5684 59.7307L72.8202 59.3111C72.8621 59.3531 72.946 59.395 73.0299 59.437C73.1139 59.4789 73.1978 59.4789 73.2817 59.4789C73.3656 59.4789 73.4495 59.437 73.5334 59.395C73.6173 59.3531 73.6593 59.2692 73.7013 59.1433L73.7432 59.0594L72.6523 56.542H73.2817L74.0789 58.3881L74.8761 56.542H75.3795V56.5Z" fill="#A09178"/>
<path d="M10.5991 50.7497C10.1795 50.5399 9.84389 50.2042 9.59215 49.7847C9.34041 49.3651 9.21454 48.9036 9.21454 48.4001C9.21454 47.8966 9.34041 47.4351 9.59215 47.0155C9.84389 46.5959 10.1795 46.3022 10.5991 46.0505C11.0187 45.8407 11.5222 45.7148 12.0257 45.7148C12.4872 45.7148 12.8648 45.7988 13.2424 45.9666C13.62 46.1344 13.9137 46.3442 14.1655 46.6379L13.4102 47.3512C13.0746 46.9316 12.613 46.7218 12.1096 46.7218C11.7739 46.7218 11.4802 46.8057 11.2285 46.9316C10.9767 47.0575 10.7669 47.2672 10.6411 47.519C10.5152 47.7707 10.4313 48.0644 10.4313 48.4001C10.4313 48.7357 10.5152 49.0294 10.6411 49.2812C10.7669 49.5329 10.9767 49.7427 11.2285 49.8686C11.4802 49.9944 11.7739 50.0784 12.1096 50.0784C12.613 50.0784 13.0746 49.8686 13.4102 49.449L14.1655 50.1623C13.9137 50.456 13.62 50.7077 13.2424 50.8336C12.8648 51.0014 12.4872 51.0853 12.0257 51.0853C11.5222 51.0853 11.0187 50.9595 10.5991 50.7497Z" fill="#A09178"/>
<path d="M17.9416 49.7848C18.1514 49.575 18.2353 49.3233 18.2353 48.9876C18.2353 48.6519 18.1514 48.4002 17.9416 48.1904C17.7318 47.9806 17.522 47.8967 17.2283 47.8967C16.9346 47.8967 16.6829 47.9806 16.4731 48.1904C16.2633 48.4002 16.1794 48.6519 16.1794 48.9876C16.1794 49.3233 16.2633 49.575 16.4731 49.7848C16.6829 49.9946 16.8927 50.0785 17.2283 50.0785C17.4801 50.0785 17.7318 49.9946 17.9416 49.7848ZM16.0535 50.7917C15.7179 50.6239 15.4661 50.3722 15.2563 50.0785C15.0885 49.7848 14.9626 49.4072 14.9626 49.0296C14.9626 48.6519 15.0466 48.2743 15.2563 47.9806C15.4242 47.6869 15.7179 47.4352 16.0535 47.2674C16.3892 47.0995 16.7668 47.0156 17.1864 47.0156C17.6059 47.0156 17.9835 47.0995 18.3192 47.2674C18.6549 47.4352 18.9066 47.6869 19.1164 47.9806C19.2842 48.2743 19.4101 48.6519 19.4101 49.0296C19.4101 49.4072 19.3262 49.7848 19.1164 50.0785C18.9485 50.3722 18.6549 50.6239 18.3192 50.7917C17.9835 50.9596 17.6059 51.0435 17.1864 51.0435C16.7668 51.0435 16.3892 50.9596 16.0535 50.7917Z" fill="#A09178"/>
<path d="M25.1161 49.7836C25.2839 49.5738 25.4098 49.3221 25.4098 48.9864C25.4098 48.6508 25.3259 48.3571 25.1161 48.1893C24.9482 47.9795 24.6965 47.8956 24.4028 47.8956C24.1091 47.8956 23.8993 47.9795 23.6895 48.1893C23.5217 48.399 23.3958 48.6508 23.3958 48.9864C23.3958 49.3221 23.4798 49.5738 23.6895 49.7836C23.8574 49.9934 24.1091 50.0773 24.4028 50.0773C24.6965 50.0773 24.9482 49.9934 25.1161 49.7836ZM25.4937 47.1823C25.8293 47.3501 26.0811 47.6019 26.2489 47.8956C26.4167 48.1893 26.5426 48.5669 26.5426 48.9445C26.5426 49.3221 26.4587 49.6997 26.2489 49.9934C26.0811 50.2871 25.8293 50.5389 25.4937 50.7067C25.158 50.8745 24.8224 50.9584 24.4028 50.9584C24.0672 50.9584 23.7315 50.8745 23.4378 50.7486C23.1441 50.6228 22.8924 50.413 22.7245 50.2032C22.5147 49.9515 22.3889 49.6997 22.3469 49.3641H21.8015V50.8745H20.6686V46.8886H21.8015V48.3571H22.3469C22.4728 47.8956 22.6826 47.518 23.0602 47.2243C23.4378 46.9306 23.8993 46.8047 24.4028 46.8047C24.8224 46.9306 25.2 47.0145 25.4937 47.1823Z" fill="#A09178"/>
<path d="M30.9061 49.2393C31.032 49.4072 31.1159 49.575 31.1159 49.7848C31.1159 50.0365 31.032 50.2463 30.8641 50.4561C30.6963 50.6659 30.4446 50.7917 30.1509 50.9176C29.8572 51.0015 29.5215 51.0854 29.1439 51.0854C28.8502 51.0854 28.5146 51.0435 28.2209 51.0015C27.9272 50.9176 27.6335 50.8337 27.3817 50.7078L27.6754 49.9107C28.095 50.1204 28.5565 50.2044 29.06 50.2044C29.3117 50.2044 29.5635 50.1624 29.6893 50.0785C29.8572 49.9946 29.9411 49.8687 29.9411 49.7428C29.9411 49.617 29.8991 49.533 29.7733 49.4491C29.6474 49.3652 29.5215 49.3652 29.3117 49.3652H28.5146V48.6519H29.2278C29.4376 48.6519 29.6054 48.61 29.6893 48.568C29.8152 48.4841 29.8572 48.4002 29.8572 48.2743C29.8572 48.1485 29.7733 48.0645 29.6474 47.9806C29.5215 47.8967 29.3117 47.8967 29.06 47.8967C28.6824 47.8967 28.2628 47.9806 27.8013 48.1904L27.5076 47.3932C28.053 47.1415 28.5985 47.0156 29.1439 47.0156C29.5215 47.0156 29.8152 47.0576 30.1089 47.1415C30.4026 47.2254 30.6124 47.3513 30.7802 47.5191C30.9481 47.6869 31.032 47.8967 31.032 48.1065C31.032 48.2743 30.99 48.4841 30.8641 48.61C30.7383 48.7778 30.6124 48.8617 30.4026 48.9876C30.5704 48.9876 30.7802 49.1135 30.9061 49.2393Z" fill="#A09178"/>
<path d="M36.3189 49.4491C36.2769 49.7009 36.193 49.9107 36.0671 50.0365H37.7454V47.9387H36.4448L36.4028 48.4422C36.4028 48.8617 36.3608 49.1974 36.3189 49.4491ZM39.4656 50.0365V51.8407H38.3748V50.9596H35.5637V51.8407H34.4728V50.0365H34.6406C34.8923 50.0365 35.0602 49.8687 35.1441 49.617C35.228 49.3233 35.3119 48.9037 35.3119 48.4002L35.3539 47.0156H38.8363V50.0785H39.4656V50.0365Z" fill="#A09178"/>
<path d="M40.6822 46.9746H41.857V49.3662L43.787 46.9746H44.8359V51.0025H43.7031V48.6109L41.7731 51.0025H40.6822V46.9746Z" fill="#A09178"/>
<path d="M49.5772 49.2393C49.7031 49.4072 49.787 49.575 49.787 49.7848C49.787 50.0365 49.7031 50.2463 49.5353 50.4561C49.3675 50.6659 49.1157 50.7917 48.822 50.9176C48.5283 51.0015 48.1927 51.0854 47.8151 51.0854C47.5214 51.0854 47.1857 51.0435 46.892 51.0015C46.5983 50.9176 46.3046 50.8337 46.0529 50.7078L46.3466 49.9107C46.7661 50.1204 47.2276 50.2044 47.7311 50.2044C47.9829 50.2044 48.2346 50.1624 48.3605 50.0785C48.5283 49.9946 48.6122 49.8687 48.6122 49.7428C48.6122 49.617 48.5703 49.533 48.4444 49.4491C48.3185 49.3652 48.1927 49.3652 47.9829 49.3652H47.1437V48.6519H47.857C48.0668 48.6519 48.2346 48.61 48.3185 48.568C48.4444 48.4841 48.4864 48.4002 48.4864 48.2743C48.4864 48.1485 48.4024 48.0645 48.2766 47.9806C48.1507 47.8967 47.9409 47.8967 47.6892 47.8967C47.3116 47.8967 46.892 47.9806 46.4305 48.1904L46.1368 47.3932C46.6822 47.1415 47.2277 47.0156 47.7731 47.0156C48.1507 47.0156 48.4444 47.0576 48.7381 47.1415C49.0318 47.2254 49.2416 47.3513 49.4094 47.5191C49.5772 47.6869 49.6612 47.8967 49.6612 48.1065C49.6612 48.2743 49.6192 48.4841 49.4933 48.61C49.3675 48.7778 49.2416 48.8617 49.0318 48.9876C49.2416 48.9876 49.4514 49.1135 49.5772 49.2393Z" fill="#A09178"/>
<path d="M53.1016 50.1213C53.2694 50.0374 53.3533 49.9115 53.4372 49.7017V49.2822H52.6401C52.1785 49.2822 51.9268 49.45 51.9268 49.7437C51.9268 49.9115 51.9687 49.9954 52.0946 50.0793C52.2205 50.1633 52.3883 50.2052 52.5561 50.2052C52.7659 50.2472 52.9337 50.2052 53.1016 50.1213ZM54.0666 47.3941C54.4022 47.6878 54.5701 48.1493 54.5701 48.7367V51.0024H53.4792V50.4989C53.2694 50.8765 52.8498 51.0444 52.2624 51.0444C51.9687 51.0444 51.675 51.0024 51.4653 50.8765C51.2555 50.7926 51.0876 50.6248 50.9618 50.457C50.8359 50.2891 50.7939 50.0793 50.7939 49.8276C50.7939 49.45 50.9198 49.1563 51.2135 48.9465C51.5072 48.7367 51.9268 48.6109 52.5142 48.6109H53.4372C53.4372 48.3591 53.3533 48.1493 53.2274 48.0235C53.0596 47.8976 52.8498 47.8137 52.5561 47.8137C52.3463 47.8137 52.1366 47.8556 51.9268 47.8976C51.717 47.9815 51.5492 48.0654 51.4233 48.1493L51.0037 47.3522C51.2135 47.1843 51.4653 47.1004 51.8009 47.0165C52.0946 46.9326 52.4303 46.8906 52.724 46.8906C53.2694 46.9326 53.7309 47.1004 54.0666 47.3941Z" fill="#A09178"/>
<path d="M56.752 45.4219H57.5072C57.5072 45.5897 57.5491 45.7156 57.6331 45.8414C57.717 45.9254 57.8428 45.9673 58.0526 45.9673C58.2205 45.9673 58.3883 45.9254 58.4722 45.8414C58.5561 45.7575 58.5981 45.5897 58.5981 45.4219H59.3533C59.3533 46.1771 58.8918 46.5547 58.0526 46.5547C57.1715 46.5547 56.752 46.1771 56.752 45.4219ZM56.0387 46.9743H57.1715V49.3658L59.1016 46.9743H60.1505V50.9602H59.0176V48.5686L57.0876 50.9602H56.0387V46.9743Z" fill="#A09178"/>
<path d="M61.7444 46.9746H62.9192V48.569H64.6395V46.9746H65.8143V51.0025H64.6395V49.492H62.9192V51.0025H61.7444V46.9746Z" fill="#A09178"/>
<path d="M68.5419 48.0235C68.3741 48.1914 68.2483 48.3592 68.2063 48.6109H70.1783C70.1363 48.3592 70.0104 48.1494 69.8426 48.0235C69.6748 47.8557 69.465 47.8137 69.1713 47.8137C68.9615 47.8137 68.7098 47.8977 68.5419 48.0235ZM71.2691 49.3242H68.2483C68.2902 49.5759 68.4161 49.7857 68.6259 49.9116C68.8356 50.0375 69.0874 50.1214 69.3811 50.1214C69.5909 50.1214 69.7587 50.0794 69.9265 50.0375C70.0944 49.9955 70.2202 49.8696 70.3881 49.7438L71.0174 50.4151C70.6398 50.8346 70.0944 51.0444 69.3811 51.0444C68.9196 51.0444 68.5419 50.9605 68.2063 50.7927C67.8706 50.6249 67.5769 50.3731 67.4091 50.0794C67.2413 49.7857 67.1154 49.4081 67.1154 49.0305C67.1154 48.6529 67.1993 48.2753 67.4091 47.9816C67.5769 47.6879 67.8706 47.4361 68.1643 47.2264C68.5 47.0585 68.8356 46.9746 69.2552 46.9746C69.6328 46.9746 70.0104 47.0585 70.3041 47.2264C70.6398 47.3942 70.8496 47.6459 71.0594 47.9396C71.2272 48.2753 71.3111 48.6109 71.3111 49.0305C71.2692 49.0305 71.2691 49.1144 71.2691 49.3242Z" fill="#A09178"/>
<path d="M75.4646 49.7847C75.6744 49.5749 75.7583 49.3232 75.7583 48.9875C75.7583 48.6519 75.6744 48.4001 75.4646 48.1903C75.2548 47.9806 75.045 47.8966 74.7513 47.8966C74.4576 47.8966 74.2059 47.9806 74.038 48.1903C73.8283 48.4001 73.7443 48.6519 73.7443 48.9875C73.7443 49.3232 73.8283 49.5749 74.038 49.7847C74.2478 49.9945 74.4576 50.0784 74.7513 50.0784C75.045 50.0784 75.2548 49.9945 75.4646 49.7847ZM75.9261 47.1834C76.2198 47.3512 76.4715 47.603 76.6394 47.8966C76.8072 48.1903 76.8911 48.568 76.8911 48.9875C76.8911 49.4071 76.8072 49.7428 76.6394 50.0784C76.4715 50.3721 76.2198 50.6238 75.9261 50.7917C75.6324 50.9595 75.2967 51.0434 74.9191 51.0434C74.4156 51.0434 73.9961 50.8756 73.7024 50.5399V52.386H72.5276V46.9736H73.6185V47.4351C73.9122 47.0995 74.3317 46.9316 74.8772 46.9316C75.2967 46.9316 75.6324 47.0156 75.9261 47.1834Z" fill="#A09178"/>
<path d="M80.8349 49.7848C81.0447 49.575 81.1286 49.3233 81.1286 48.9876C81.1286 48.6519 81.0447 48.4002 80.8349 48.1904C80.6251 47.9806 80.4154 47.8967 80.1217 47.8967C79.828 47.8967 79.5762 47.9806 79.3664 48.1904C79.1567 48.4002 79.0728 48.6519 79.0728 48.9876C79.0728 49.3233 79.1567 49.575 79.3664 49.7848C79.5762 49.9946 79.786 50.0785 80.1217 50.0785C80.4154 50.0785 80.6671 49.9946 80.8349 49.7848ZM78.9888 50.7917C78.6532 50.6239 78.4014 50.3722 78.1917 50.0785C78.0238 49.7848 77.8979 49.4072 77.8979 49.0296C77.8979 48.6519 77.9819 48.2743 78.1917 47.9806C78.3595 47.6869 78.6532 47.4352 78.9888 47.2674C79.3245 47.0995 79.7021 47.0156 80.1217 47.0156C80.5412 47.0156 80.9188 47.0995 81.2545 47.2674C81.5902 47.4352 81.8419 47.6869 82.0517 47.9806C82.2195 48.2743 82.3454 48.6519 82.3454 49.0296C82.3454 49.4072 82.2615 49.7848 82.0517 50.0785C81.8839 50.3722 81.5902 50.6239 81.2545 50.7917C80.9188 50.9596 80.5412 51.0435 80.1217 51.0435C79.7021 51.0435 79.3245 50.9596 78.9888 50.7917Z" fill="#A09178"/>
<path d="M86.2474 49.7428C86.2474 49.575 86.2055 49.4911 86.0796 49.4072C85.9957 49.3233 85.8279 49.2813 85.6181 49.2813H84.6111V50.1624H85.5761C86.0377 50.2043 86.2474 50.0365 86.2474 49.7428ZM84.6531 48.6519H85.5342C85.9537 48.6519 86.1635 48.5261 86.1635 48.2324C86.1635 47.9387 85.9537 47.8128 85.5342 47.8128H84.6531V48.6519ZM87.3383 49.8687C87.3383 50.2463 87.2124 50.498 86.9187 50.7078C86.667 50.9176 86.2474 51.0015 85.702 51.0015H83.5622V47.0156H85.6181C86.1216 47.0156 86.4992 47.0995 86.7929 47.2674C87.0866 47.4352 87.2125 47.6869 87.2125 48.0226C87.2125 48.2324 87.1705 48.4002 87.0446 48.5261C86.9607 48.6939 86.7929 48.7778 86.6251 48.8617C87.0866 49.0715 87.3383 49.3652 87.3383 49.8687Z" fill="#A09178"/>
</svg>
