<svg width="48" height="48" viewBox="0 0 48 48" fill="none" xmlns="http://www.w3.org/2000/svg">
<rect width="48" height="48" rx="24" fill="#252525"/>
<path d="M9.76955 23.0498C9.83681 23.0162 9.90411 22.9842 9.9697 22.954C11.1099 22.4259 12.2652 21.9315 13.4188 21.4371C13.481 21.4371 13.5853 21.3648 13.6441 21.3413C13.7333 21.3026 13.8224 21.2656 13.9115 21.2269C14.0831 21.1529 14.2546 21.0806 14.4244 21.0066C14.7675 20.8603 15.1089 20.714 15.4519 20.5677L17.5052 19.6882C18.8741 19.103 20.2447 18.516 21.6136 17.9308C22.9825 17.3456 24.353 16.7587 25.7219 16.1735C27.0908 15.5883 28.4613 15.0014 29.8302 14.4161C31.1991 13.8309 32.5697 13.244 33.9386 12.6588C34.243 12.5276 34.5726 12.3325 34.8988 12.2754C35.1729 12.2266 35.4403 12.1324 35.7161 12.0803C36.2391 11.9811 36.8159 11.9407 37.317 12.1576C37.4903 12.2333 37.65 12.3393 37.7829 12.4721C38.4185 13.1011 38.3294 14.1336 38.1949 15.0182C37.2582 21.1832 36.3215 27.3499 35.3831 33.5149C35.2553 34.3608 35.0804 35.2891 34.4128 35.8238C33.8477 36.2762 33.0439 36.3266 32.346 36.1349C31.6481 35.9415 31.0326 35.5363 30.4289 35.1377C27.9249 33.4796 25.4192 31.8214 22.9152 30.1633C22.3199 29.7698 21.6573 29.2552 21.6641 28.5405C21.6674 28.11 21.9247 27.7266 22.187 27.3852C24.3631 24.5465 27.5028 22.5958 29.8386 19.8883C30.1683 19.5066 30.4272 18.8171 29.9749 18.5968C29.7058 18.4656 29.3964 18.6438 29.1508 18.8137C26.0633 20.9578 22.9774 23.1036 19.8899 25.2478C18.8826 25.9474 17.8265 26.6671 16.6123 26.8387C15.5259 26.9934 14.4329 26.6907 13.3818 26.3812C12.5006 26.1222 11.6211 25.8565 10.7449 25.5824C10.2791 25.4378 9.79814 25.2814 9.43826 24.9535C9.07839 24.6256 8.87157 24.074 9.0885 23.6367C9.22472 23.3626 9.48875 23.1894 9.76622 23.0482L9.76955 23.0498Z" fill="#FEFFFC"/>
</svg>
