<svg width="48" height="48" viewBox="0 0 48 48" fill="none" xmlns="http://www.w3.org/2000/svg">
<rect width="48" height="48" rx="24" fill="#252525"/>
<path d="M28.3146 31.1411C22.1715 31.1411 17.1736 26.1415 17.1719 19.9983C17.1736 18.4411 18.4415 17.1748 19.9954 17.1748C20.1552 17.1748 20.3132 17.1883 20.4646 17.2152C20.7976 17.2707 21.1137 17.3833 21.4047 17.5532C21.4467 17.5784 21.4753 17.6188 21.482 17.6659L22.1311 21.7574C22.1395 21.8045 22.1244 21.8532 22.0925 21.8885C21.7343 22.2854 21.2768 22.5713 20.7673 22.7142L20.5218 22.7832L20.6143 23.0203C21.4517 25.1527 23.157 26.8562 25.291 27.697L25.5281 27.7912L25.5971 27.5457C25.74 27.0361 26.0259 26.5787 26.4228 26.2205C26.4513 26.1936 26.49 26.1802 26.5287 26.1802C26.5371 26.1802 26.5455 26.1802 26.5556 26.1819L30.6471 26.831C30.6959 26.8394 30.7363 26.8663 30.7615 26.9083C30.9297 27.1993 31.0423 27.5171 31.0995 27.8501C31.1264 27.998 31.1382 28.1544 31.1382 28.3176C31.1382 29.8731 29.8719 31.1394 28.3146 31.1411Z" fill="#FDFDFD"/>
<path d="M39.2085 22.7729C38.8772 19.0295 37.1619 15.5568 34.3787 12.9957C31.5788 10.4193 27.9463 9 24.1474 9C15.8097 9 9.02584 15.7839 9.02584 24.1216C9.02584 26.9199 9.79771 29.6459 11.2591 32.0204L8 39.2348L18.4348 38.1232C20.2493 38.8665 22.1698 39.2432 24.1457 39.2432C24.6654 39.2432 25.1985 39.2163 25.7333 39.1608C26.2041 39.1103 26.68 39.0364 27.1475 38.9422C34.1299 37.5313 39.227 31.3343 39.2674 24.2023V24.1216C39.2674 23.6676 39.2472 23.2135 39.2068 22.7746L39.2085 22.7729ZM18.8367 34.9566L13.0635 35.5721L14.7873 31.753L14.4425 31.2906C14.4173 31.257 14.3921 31.2233 14.3635 31.1846C12.8668 29.1179 12.0764 26.6761 12.0764 24.1233C12.0764 17.4672 17.4914 12.0522 24.1474 12.0522C30.3831 12.0522 35.6686 16.9173 36.1781 23.1277C36.205 23.4607 36.2202 23.7954 36.2202 24.125C36.2202 24.2192 36.2185 24.3116 36.2168 24.4109C36.089 29.9789 32.1993 34.7077 26.7574 35.9118C26.342 36.0043 25.9165 36.0749 25.4928 36.1203C25.0522 36.1708 24.5998 36.196 24.1508 36.196C22.5515 36.196 20.9977 35.8866 19.5296 35.2745C19.3664 35.2089 19.2067 35.1382 19.057 35.0659L18.8384 34.96L18.8367 34.9566Z" fill="#FDFDFD"/>
</svg>
